<svg xmlns="http://www.w3.org/2000/svg" viewBox="0 0 360 360"><switch><g><circle fill="#3D6D89" cx="180.3" cy="179.9" r="177.2"/><g fill="#FFF"><path d="M96.9 209.7c.3.4.4.6.6.9 4.3 5.7 9 11.2 13.9 16.4 9.4 9.9 19.5 19.1 30 27.9 11.2 9.4 22.9 18.3 34.9 26.8 2.7 1.9 5.6 1.9 8.3 0 .4-.3.9-.6 1.4-1 19.7-14.1 38.7-29.2 56.1-46.1 7.8-7.6 15.1-15.6 21.6-24.4.1-.2.2-.3.3-.6h-45.3c-2.7 0-4.6-1.4-5.5-3.9-2.5-6.8-4.9-13.6-7.4-20.3-.9-2.4-1.8-4.8-2.7-7.4-.2.3-.3.5-.4.6-8.9 18.7-17.8 37.4-26.6 56.1-1 2-2.7 3-4.8 3.1-2.1 0-3.8-.9-4.8-2.7-5.6-10-11.2-19.9-16.7-29.9-1-1.7-1.9-3.4-2.9-5.2-1.2 2.1-2.4 4.2-3.5 6.3-1.2 2.4-3.1 3.4-5.7 3.4H96.9z"/><path d="M78.3 154c.2-1.3.3-2.7.4-4 .7-6.8 2.8-13.3 6-19.3 7.7-14.1 19.1-23.5 34.6-27.9 6.1-1.7 12.4-2.1 18.7-1.4 12 1.2 22.3 6 31.2 14 4.3 3.9 7.9 8.4 10.8 13.5.1.2.2.3.3.4 1.2-1.8 2.3-3.6 3.5-5.4 7.9-10.9 18.4-18.2 31.6-21.3 16.3-3.9 31.3-.7 44.7 9.5 10.9 8.3 17.9 19.3 20.9 32.7.8 3.5 1.1 7.1 1.2 10.8.3 13-3.1 25.2-8.2 37-.2.4-.4.6-.9.6h-46.4c-.5 0-.7-.2-.8-.6-5.4-15-10.9-30-16.3-45-.8-2.1-2.7-3.5-5-3.6-2.1-.1-4.2 1.2-5.1 3.2-9.6 20.2-19.2 40.5-28.8 60.7-.1.1-.2.3-.3.5-.2-.2-.3-.4-.4-.6-6.1-11-12.3-22-18.4-33-1-1.8-2.7-2.8-4.7-2.8-2.1 0-3.8.9-4.8 2.8-3.3 5.9-6.6 11.9-9.9 17.8-.3.5-.6.7-1.2.7H87.7c-.6 0-.9-.2-1.1-.7-3.4-7.7-5.9-15.6-7.2-23.9-.4-2.4-.6-4.9-.9-7.4 0-.3-.1-.5-.1-.8-.1-2.2-.1-4.4-.1-6.5z"/><path d="M96.9 209.7h40.6c2.6 0 4.5-1 5.7-3.4 1.1-2.1 2.3-4.1 3.5-6.3 1 1.8 2 3.5 2.9 5.2 5.6 10 11.1 19.9 16.7 29.9 1 1.8 2.8 2.8 4.8 2.7 2.2 0 3.9-1.1 4.8-3.1 8.9-18.7 17.8-37.4 26.6-56.1.1-.2.2-.4.4-.6.9 2.5 1.8 5 2.7 7.4 2.5 6.8 4.9 13.6 7.4 20.3.9 2.5 2.8 3.9 5.5 3.9h45.3l-.3.6c-6.5 8.7-13.8 16.8-21.6 24.4-17.4 17-36.3 32-56.1 46.1-.4.3-.9.6-1.4 1-2.7 1.9-5.6 1.9-8.3 0-12-8.5-23.7-17.3-34.9-26.8-10.5-8.8-20.6-18-30-27.9-4.9-5.2-9.6-10.7-13.9-16.4 0-.3-.2-.5-.4-.9z"/></g></g></switch></svg>