<svg xmlns="http://www.w3.org/2000/svg" viewBox="0 0 360 360"><switch><g><circle fill="#3D6D89" cx="180.3" cy="180.4" r="177.5"/><g fill="#FFF"><path d="M176.6 192.2c2.3.7 5.2.7 7.5 0 29.6-9.1 59.1-18.5 88.7-27.8 7.4-2.3 14.9-4.6 22.3-7.2 1.1-.4 2.5-2 2.6-3.1 0-1.1-1.4-2.3-2.4-3.3-.4-.4-1.2-.4-1.8-.6-36.4-11.4-72.8-22.9-109.3-34.2-2.3-.7-5.2-.8-7.5 0-25.1 7.7-50.1 15.7-75.1 23.6-11.9 3.7-23.8 7.4-35.6 11.3-1.2.4-2.8 2.1-2.8 3.2s1.5 2.6 2.7 3.3c1.8 1 3.9 1.4 5.8 2l104.9 32.8zm3.7-39.3c-6.6 0-12-1.7-12-3.7s5.4-3.7 12-3.7 12 1.7 12 3.7-5.4 3.7-12 3.7z"/><path d="M243.7 187.5c-1.4.4-2.5.6-3.6 1-18 5.7-36 11.3-54 17-4 1.3-7.8 1.2-11.8-.1-12.3-4-24.6-7.8-36.9-11.6-6.7-2.1-13.4-4.2-20.6-6.5-.5 10.4-.7 20.2-1.6 29.9-.6 6.5 2.3 10.9 7.1 14.4 2.5 1.9 5.3 3.4 8.2 4.7 13.9 6.3 28.7 8.7 43.7 9 10.5.2 21.1-.6 31.5-1.9 10.6-1.4 21-4.3 30.3-10.2 5.2-3.3 9.8-7.1 9.6-14-.2-6.9-.6-13.7-1-20.6-.2-3.6-.6-7.2-.9-11.1zM77.1 212.1h-9.4c-1.6 0-2.8-1.5-2.5-3l5.7-30.1 3.7-19.8c.5-2.8 4.5-2.8 5 0l3.7 19.8 5.7 30.1c.3 1.6-.9 3-2.5 3h-9.4z"/></g></g></switch></svg>