<svg id="Layer_3" xmlns="http://www.w3.org/2000/svg" viewBox="0 0 360 360"><style>.st0{fill:#fff}</style><path class="st0" d="M179.1 138h-1.3l-21.1 56.4h13.6v-17.2c0-1 .8-1.8 1.8-1.8h14c1 0 1.8.8 1.8 1.8v17.2H202l-21-56.5c-.6 0-1.2.1-1.9.1z"/><circle class="st0" cx="179.1" cy="114.1" r="11"/><path class="st0" d="M179.4 1.2C80.7 1.5.8 81.8 1.2 180.6c.3 98.8 80.6 178.6 179.4 178.2s178.6-80.6 178.2-179.4C358.5 80.7 278.2.8 179.4 1.2zm77 204.3c0 .7-.6 1.3-1.3 1.3H231c-.7 0-1.3-.6-1.3-1.3v-3.8h-7l23.4 66-7.6 24.2-33.8-90.2H188v17.8c0 1-.8 1.8-1.8 1.8h-14c-1 0-1.8-.8-1.8-1.8v-17.8H154l-33.8 90.2-7.6-24.2 23.4-66h-5.7v3.8c0 .7-.6 1.3-1.3 1.3h-24.1c-.7 0-1.3-.6-1.3-1.3v-15c0-.7.6-1.3 1.3-1.3H129c.7 0 1.3.6 1.3 1.3v3.8h8.3l22.8-64.3c-3.8-4.2-6.1-9.8-6.1-16 0-10.1 6.2-18.7 15.1-22.2V69.9c0-1 .8-1.8 1.8-1.8h14c1 0 1.8.8 1.8 1.8v21.9c8.8 3.5 15.1 12.1 15.1 22.2 0 5.9-2.2 11.4-5.8 15.6l22.9 64.7h9.6v-3.8c0-.7.6-1.3 1.3-1.3h24.1c.7 0 1.3.6 1.3 1.3v15z"/></svg>