<svg xmlns="http://www.w3.org/2000/svg" viewBox="0 0 360 360"><switch><g><circle fill="#3D6D89" cx="180" cy="180" r="178.8"/><circle fill="#FFF" cx="179.1" cy="114.1" r="23.9"/><path fill="#FFF" d="M186.2 114.1h-14c-1 0-1.8-.8-1.8-1.8V69.9c0-1 .8-1.8 1.8-1.8h14c1 0 1.8.8 1.8 1.8v42.3c0 1.1-.9 1.9-1.8 1.9zm0 107.1h-14c-1 0-1.8-.8-1.8-1.8v-42.3c0-1 .8-1.8 1.8-1.8h14c1 0 1.8.8 1.8 1.8v42.3c0 1-.9 1.8-1.8 1.8zm-55.9-30.7v15c0 .7-.6 1.3-1.3 1.3h-24.1c-.7 0-1.3-.6-1.3-1.3v-15c0-.7.6-1.3 1.3-1.3H129c.7 0 1.3.5 1.3 1.3zm126.1 0v15c0 .7-.6 1.3-1.3 1.3H231c-.7 0-1.3-.6-1.3-1.3v-15c0-.7.6-1.3 1.3-1.3h24.1c.7 0 1.3.5 1.3 1.3z"/><circle fill="#3D6D89" cx="179.1" cy="114.1" r="11"/><path fill="#FFF" d="M112.6 267.7l7.6 24.2 59.4-158.8-16.6-7.6z"/><path fill="#FFF" d="M246.2 267.7l-7.6 24.2-59.5-158.8 16.7-7.6z"/><path fill="#FFF" d="M110.5 194.3h135.7v7.3H110.5z"/></g></switch></svg>