<svg width="34" height="34" viewBox="0 0 34 34" xmlns="http://www.w3.org/2000/svg"><title>Hotspot</title><g fill="none" fill-rule="evenodd"><circle fill="#009ACB" cx="17" cy="17" r="17"/><path d="M18.214 15.786v-5.664A1.21 1.21 0 0 0 17 8.905c-.675 0-1.214.545-1.214 1.217v5.664h-5.664A1.21 1.21 0 0 0 8.905 17c0 .675.545 1.214 1.217 1.214h5.664v5.664c0 .68.543 1.217 1.214 1.217.675 0 1.214-.545 1.214-1.217v-5.664h5.664A1.21 1.21 0 0 0 25.095 17c0-.675-.545-1.214-1.217-1.214h-5.664z" fill="#fff"/></g></svg>