<svg id="Layer_4" xmlns="http://www.w3.org/2000/svg" viewBox="0 0 360 360"><style>.st0{fill:#fff}</style><path class="st0" d="M180 1.2C81.2 1.2 1.2 81.2 1.2 180s80 178.8 178.8 178.8 178.8-80 178.8-178.8S278.8 1.2 180 1.2zm83.8 92.2c7.7 0 13.9 6.6 13.7 14-.2 7.7-6.5 13.9-14.1 13.7-7.8-.2-13.8-6.5-13.6-14.3.2-7.3 6-13.5 14-13.4zm-83.4-32c10.9 0 19.8 9.3 19.4 19.9-.3 11-9.3 19.7-20 19.4-11-.3-19.6-9.3-19.3-20.3.4-10.3 8.6-19.1 19.9-19zm-85.5 32c7.7 0 13.9 6.6 13.7 14-.2 7.7-6.5 13.9-14.1 13.7-7.8-.2-13.8-6.5-13.6-14.3.3-7.3 6.1-13.5 14-13.4zm26.8 93v4.5h-.6c-3.5 0-5.9-2.6-6-6.4v-38.7h-2.7v104.7c0 1.3-.1 2.7-.3 3.9-.8 3.6-4.4 6.2-8.1 5.9-4.3-.3-7.4-3.2-7.7-7.2-.1-1-.1-2-.1-3v-59.7h-2.8v60.2c0 1.2.1 2.3-.2 3.5-.8 3.8-4.4 6.5-8.2 6.3-4.3-.2-7.2-3-7.6-7.3-.1-1-.1-2.1-.1-3.1V145.9h-2.8v38.3c0 3.9-1.9 6.2-5.5 6.6-3 .4-5.9-1.7-6.4-4.7-.2-.8-.2-1.6-.2-2.5v-40.9c0-8.2 4.6-15.1 11.8-17.6 1.9-.7 4-1 6-1.1 9.7-.1 19.4-.1 29.1 0 4.9 0 9.4 1.9 12.6 5 0 .8-.1 1.6-.1 2.4-.2 18.4-.2 37-.1 55zm104.3 4.8c0 5.2-3.7 8.7-8.5 8.7-5-.1-8.4-3.7-8.4-9V136h-3.9v148.6c0 1.9-.1 3.8-.5 5.6-1.1 5.1-6.2 8.8-11.5 8.4-6.2-.4-10.5-4.5-11-10.2-.1-1.4-.2-2.8-.2-4.2v-84.8h-3.9v85.4c0 1.6.1 3.3-.2 4.9-1.1 5.4-6.2 9.2-11.7 8.9-6.1-.3-10.2-4.3-10.8-10.3-.1-1.5-.2-3-.2-4.5V136h-4v54.3c0 5.5-2.7 8.8-7.8 9.4-4.3.5-8.3-2.4-9.1-6.6-.2-1.1-.3-2.3-.3-3.5v-58.1c0-11.7 6.5-21.4 16.8-25 2.7-.9 5.6-1.5 8.5-1.5 13.8-.1 27.6-.1 41.4 0 14 .1 25.2 10.7 25.4 24.6.1 20.6 0 41.1-.1 61.6zm70.8-7.5c0 .8-.1 1.7-.2 2.5-.6 3-3.4 5.1-6.4 4.7-3.6-.5-5.5-2.7-5.5-6.6V146h-2.8v104.1c0 1-.1 2.1-.1 3.1-.4 4.3-3.3 7-7.6 7.3-3.9.2-7.5-2.5-8.2-6.3-.2-1.1-.2-2.3-.2-3.5v-60.2H263v59.7c0 1 0 2-.1 3-.3 4-3.4 6.9-7.7 7.2-3.7.3-7.3-2.3-8.1-5.9-.3-1.3-.3-2.6-.3-3.9V145.9h-2.7v38.7c0 3.8-2.5 6.3-6 6.4h-.6v-59.4c0-.8 0-1.6-.1-2.4 3.2-3.1 7.7-5 12.6-5 9.7-.1 19.4-.1 29.1 0 2 0 4.1.4 6 1.1 7.2 2.5 11.8 9.4 11.8 17.6-.1 13.5-.1 27.2-.1 40.8z"/></svg>