<svg xmlns="http://www.w3.org/2000/svg" viewBox="0 0 360 360"><switch><g><circle fill="#3D6D89" cx="180" cy="180" r="178.8"/><g fill="#FFF"><path d="M115.1 145.9v38.7c0 3.8 2.5 6.3 6 6.4 3.4 0 6-2.4 6-6.1 0-14.5.2-28.9-.1-43.4-.2-9.8-8-17.3-17.9-17.3-9.7-.1-19.4-.1-29.1 0-2 0-4.1.4-6 1.1-7.2 2.5-11.8 9.4-11.8 17.6v40.9c0 .8.1 1.7.2 2.5.6 3 3.4 5.1 6.4 4.7 3.6-.5 5.5-2.7 5.5-6.6v-38.3h2.8v104.1c0 1 .1 2.1.1 3.1.4 4.3 3.3 7 7.6 7.3 3.9.2 7.5-2.5 8.2-6.3.2-1.1.2-2.3.2-3.5V190.6H96v59.7c0 1 0 2 .1 3 .3 4 3.4 6.9 7.7 7.2 3.7.3 7.3-2.3 8.1-5.9.3-1.3.3-2.6.3-3.9V146c1.2-.1 1.9-.1 2.9-.1zm-6.5-38.5c.2-7.5-6-14-13.7-14-7.9 0-13.7 6.1-13.9 13.4-.2 7.8 5.8 14.1 13.6 14.3 7.5.2 13.8-6 14-13.7z"/><path d="M115.1 145.9h-2.7v104.7c0 1.3-.1 2.7-.3 3.9-.8 3.6-4.4 6.2-8.1 5.9-4.3-.3-7.4-3.2-7.7-7.2-.1-1-.1-2-.1-3v-59.7h-2.8v60.2c0 1.2.1 2.3-.2 3.5-.8 3.8-4.4 6.5-8.2 6.3-4.3-.2-7.2-3-7.6-7.3-.1-1-.1-2.1-.1-3.1V146h-2.8v38.3c0 3.9-1.9 6.2-5.5 6.6-3 .4-5.9-1.7-6.4-4.7-.2-.8-.2-1.6-.2-2.5v-40.9c0-8.2 4.6-15.1 11.8-17.6 1.9-.7 4-1 6-1.1 9.7-.1 19.4-.1 29.1 0 9.8.1 17.7 7.5 17.9 17.3.2 14.5.1 28.9.1 43.4 0 3.7-2.6 6.1-6 6.1-3.5 0-5.9-2.6-6-6.4v-36.6c-.2-.6-.2-1.2-.2-2zm-6.5-38.5c-.2 7.7-6.5 13.9-14.1 13.7-7.8-.2-13.8-6.5-13.6-14.3.2-7.3 6-13.4 13.9-13.4 7.8 0 14.1 6.5 13.8 14z"/></g><g fill="#FFF"><path d="M284 145.9v38.7c0 3.8 2.5 6.3 6 6.4 3.4 0 6-2.4 6-6.1 0-14.5.2-28.9-.1-43.4-.2-9.8-8-17.3-17.9-17.3-9.7-.1-19.4-.1-29.1 0-2 0-4.1.4-6 1.1-7.2 2.5-11.8 9.4-11.8 17.6v40.9c0 .8.1 1.7.2 2.5.6 3 3.4 5.1 6.4 4.7 3.6-.5 5.5-2.7 5.5-6.6v-38.3h2.8v104.1c0 1 .1 2.1.1 3.1.4 4.3 3.3 7 7.6 7.3 3.9.2 7.5-2.5 8.2-6.3.2-1.1.2-2.3.2-3.5V190.6h2.8v59.7c0 1 0 2 .1 3 .3 4 3.4 6.9 7.7 7.2 3.7.3 7.3-2.3 8.1-5.9.3-1.3.3-2.6.3-3.9V146c1.1-.1 1.8-.1 2.9-.1zm-6.5-38.5c.2-7.5-6-14-13.7-14-7.9 0-13.7 6.1-13.9 13.4-.2 7.8 5.8 14.1 13.6 14.3 7.4.2 13.7-6 14-13.7z"/><path d="M284 145.9h-2.7v104.7c0 1.3-.1 2.7-.3 3.9-.8 3.6-4.4 6.2-8.1 5.9-4.3-.3-7.4-3.2-7.7-7.2-.1-1-.1-2-.1-3v-59.7h-2.8v60.2c0 1.2.1 2.3-.2 3.5-.8 3.8-4.4 6.5-8.2 6.3-4.3-.2-7.2-3-7.6-7.3-.1-1-.1-2.1-.1-3.1V146h-2.8v38.3c0 3.9-1.9 6.2-5.5 6.6-3 .4-5.9-1.7-6.4-4.7-.2-.8-.2-1.6-.2-2.5v-40.9c0-8.2 4.6-15.1 11.8-17.6 1.9-.7 4-1 6-1.1 9.7-.1 19.4-.1 29.1 0 9.8.1 17.7 7.5 17.9 17.3.2 14.5.1 28.9.1 43.4 0 3.7-2.6 6.1-6 6.1-3.5 0-5.9-2.6-6-6.4v-36.6c-.2-.6-.2-1.2-.2-2zm-6.5-38.5c-.2 7.7-6.5 13.9-14.1 13.7-7.8-.2-13.8-6.5-13.6-14.3.2-7.3 6-13.4 13.9-13.4 7.8 0 14 6.5 13.8 14z"/></g><g fill="#FFF" stroke="#3D6D89" stroke-width="24.499" stroke-miterlimit="10"><path d="M209 135.9v54.9c0 5.3 3.5 9 8.4 9 4.8.1 8.5-3.4 8.5-8.7.1-20.5.2-41.1-.1-61.6-.2-14-11.4-24.5-25.4-24.6-13.8-.1-27.6-.1-41.4 0-2.8 0-5.8.6-8.5 1.5-10.3 3.6-16.7 13.3-16.8 25v58.1c0 1.2.1 2.3.3 3.5.8 4.3 4.9 7.2 9.1 6.6 5.1-.6 7.8-3.9 7.8-9.4v-54.3h4v147.8c0 1.5.1 3 .2 4.5.5 6 4.6 10 10.8 10.3 5.5.3 10.6-3.5 11.7-8.9.3-1.6.2-3.3.2-4.9v-85.4h3.9v84.8c0 1.4.1 2.8.2 4.2.4 5.7 4.8 9.7 11 10.2 5.3.4 10.4-3.3 11.5-8.4.4-1.8.5-3.7.5-5.6V135.9h4.1zm-9.2-54.6c.3-10.6-8.5-19.9-19.4-19.9-11.2 0-19.5 8.7-19.8 19-.3 11 8.3 20 19.3 20.3 10.6.3 19.6-8.4 19.9-19.4z"/><path d="M209 135.9h-3.9v148.6c0 1.9-.1 3.8-.5 5.6-1.1 5.1-6.2 8.8-11.5 8.4-6.2-.4-10.5-4.5-11-10.2-.1-1.4-.2-2.8-.2-4.2v-84.8H178v85.4c0 1.6.1 3.3-.2 4.9-1.1 5.4-6.2 9.2-11.7 8.9-6.1-.3-10.2-4.3-10.8-10.3-.1-1.5-.2-3-.2-4.5V135.9h-4v54.3c0 5.5-2.7 8.8-7.8 9.4-4.3.5-8.3-2.4-9.1-6.6-.2-1.1-.3-2.3-.3-3.5v-58.1c0-11.7 6.5-21.4 16.8-25 2.7-.9 5.6-1.5 8.5-1.5 13.8-.1 27.6-.1 41.4 0 14 .1 25.2 10.7 25.4 24.6.3 20.5.2 41.1.1 61.6 0 5.2-3.7 8.7-8.5 8.7-5-.1-8.4-3.7-8.4-9v-51.9c-.2-.9-.2-1.8-.2-3zm-9.2-54.6c-.3 11-9.3 19.7-20 19.4-11-.3-19.6-9.3-19.3-20.3.3-10.3 8.6-19.1 19.8-19 11 0 19.8 9.3 19.5 19.9z"/></g><g fill="#FFF"><path d="M209 135.9v54.9c0 5.3 3.5 9 8.4 9 4.8.1 8.5-3.4 8.5-8.7.1-20.5.2-41.1-.1-61.6-.2-14-11.4-24.5-25.4-24.6-13.8-.1-27.6-.1-41.4 0-2.8 0-5.8.6-8.5 1.5-10.3 3.6-16.7 13.3-16.8 25v58.1c0 1.2.1 2.3.3 3.5.8 4.3 4.9 7.2 9.1 6.6 5.1-.6 7.8-3.9 7.8-9.4v-54.3h4v147.8c0 1.5.1 3 .2 4.5.5 6 4.6 10 10.8 10.3 5.5.3 10.6-3.5 11.7-8.9.3-1.6.2-3.3.2-4.9v-85.4h3.9v84.8c0 1.4.1 2.8.2 4.2.4 5.7 4.8 9.7 11 10.2 5.3.4 10.4-3.3 11.5-8.4.4-1.8.5-3.7.5-5.6V135.9h4.1zm-9.2-54.6c.3-10.6-8.5-19.9-19.4-19.9-11.2 0-19.5 8.7-19.8 19-.3 11 8.3 20 19.3 20.3 10.6.3 19.6-8.4 19.9-19.4z"/><path d="M209 135.9h-3.9v148.6c0 1.9-.1 3.8-.5 5.6-1.1 5.1-6.2 8.8-11.5 8.4-6.2-.4-10.5-4.5-11-10.2-.1-1.4-.2-2.8-.2-4.2v-84.8H178v85.4c0 1.6.1 3.3-.2 4.9-1.1 5.4-6.2 9.2-11.7 8.9-6.1-.3-10.2-4.3-10.8-10.3-.1-1.5-.2-3-.2-4.5V135.9h-4v54.3c0 5.5-2.7 8.8-7.8 9.4-4.3.5-8.3-2.4-9.1-6.6-.2-1.1-.3-2.3-.3-3.5v-58.1c0-11.7 6.5-21.4 16.8-25 2.7-.9 5.6-1.5 8.5-1.5 13.8-.1 27.6-.1 41.4 0 14 .1 25.2 10.7 25.4 24.6.3 20.5.2 41.1.1 61.6 0 5.2-3.7 8.7-8.5 8.7-5-.1-8.4-3.7-8.4-9v-51.9c-.2-.9-.2-1.8-.2-3zm-9.2-54.6c-.3 11-9.3 19.7-20 19.4-11-.3-19.6-9.3-19.3-20.3.3-10.3 8.6-19.1 19.8-19 11 0 19.8 9.3 19.5 19.9z"/></g></g></switch></svg>