<?xml version="1.0" encoding="utf-8"?>
<!-- Generator: Adobe Illustrator 21.0.2, SVG Export Plug-In . SVG Version: 6.00 Build 0)  -->
<svg version="1.1" id="Layer_1" xmlns="http://www.w3.org/2000/svg" xmlns:xlink="http://www.w3.org/1999/xlink" x="0px" y="0px"
	 viewBox="0 0 360 360" style="enable-background:new 0 0 360 360;" xml:space="preserve">
<style type="text/css">
	.st0{fill:#3D6D89;}
	.st1{fill:#FFFFFF;}
	.st2{fill:#34657F;}
</style>
<g id="Layer_3">
	<circle class="st0" cx="180" cy="180" r="180"/>
</g>
<g>
	<rect x="102.9" y="133.8" class="st1" width="154.2" height="141.2"/>
	<polygon class="st1" points="265.7,127.5 94.3,127.5 110.1,93.1 249.9,93.1 	"/>
	<rect x="116.7" y="149.4" class="st2" width="20.8" height="21.6"/>
	<rect x="143.1" y="149.4" class="st2" width="20.8" height="21.6"/>
	<rect x="137.4" y="79.4" class="st1" width="26.5" height="21.6"/>
	<rect x="169.6" y="149.4" class="st2" width="20.8" height="21.6"/>
	<rect x="196.1" y="149.4" class="st2" width="20.8" height="21.6"/>
	<rect x="222.6" y="149.4" class="st2" width="20.8" height="21.6"/>
	<g>
		<rect x="116.7" y="178.9" class="st2" width="20.8" height="21.6"/>
		<rect x="143.1" y="178.9" class="st2" width="20.8" height="21.6"/>
		<rect x="169.6" y="178.9" class="st2" width="20.8" height="21.6"/>
		<rect x="196.1" y="178.9" class="st2" width="20.8" height="21.6"/>
		<rect x="222.6" y="178.9" class="st2" width="20.8" height="21.6"/>
	</g>
	<g>
		<rect x="116.7" y="208.3" class="st2" width="20.8" height="21.6"/>
		<rect x="143.1" y="208.3" class="st2" width="20.8" height="21.6"/>
		<rect x="169.6" y="208.3" class="st2" width="20.8" height="21.6"/>
		<rect x="196.1" y="208.3" class="st2" width="20.8" height="21.6"/>
		<rect x="222.6" y="208.3" class="st2" width="20.8" height="21.6"/>
	</g>
	<g>
		<rect x="116.7" y="237.7" class="st2" width="20.8" height="21.6"/>
		<rect x="143.1" y="237.7" class="st2" width="20.8" height="21.6"/>
		<rect x="169.6" y="237.7" class="st2" width="20.8" height="38.5"/>
		<rect x="196.1" y="237.7" class="st2" width="20.8" height="21.6"/>
		<rect x="222.6" y="237.7" class="st2" width="20.8" height="21.6"/>
	</g>
</g>
</svg>
