<?xml version="1.0" encoding="utf-8"?>
<!-- Generator: Adobe Illustrator 21.0.2, SVG Export Plug-In . SVG Version: 6.00 Build 0)  -->
<svg version="1.1" id="Layer_1" xmlns="http://www.w3.org/2000/svg" xmlns:xlink="http://www.w3.org/1999/xlink" x="0px" y="0px"
	 viewBox="0 0 340.8 119.8" style="enable-background:new 0 0 340.8 119.8;" xml:space="preserve">
<style type="text/css">
	.st0{fill:#333F48;}
	.st1{fill:#39B3CA;}
	.st2{fill:none;stroke:#39B3CA;stroke-width:3.0111;}
</style>
<g>
	<path class="st0" d="M112.1,91.2h1.5v11.7h7.3v1.4h-8.8V91.2z"/>
	<path class="st0" d="M127.9,103.2c1.3,0,2.3-0.5,3-1.4l0.9,0.8c-1,1.1-2.1,1.8-4,1.8c-2.6,0-4.8-2-4.8-5c0-2.8,2-5,4.6-5
		c2.8,0,4.5,2.3,4.5,5.1c0,0.1,0,0.3,0,0.5h-7.6C124.7,102,126.2,103.2,127.9,103.2z M130.7,98.8c-0.2-1.8-1.2-3.2-3.1-3.2
		c-1.7,0-2.9,1.4-3.1,3.2H130.7z"/>
	<path class="st0" d="M134.1,103l0.7-1c1,0.8,2.2,1.2,3.3,1.2c1.2,0,2-0.6,2-1.5v0c0-1-1.1-1.3-2.4-1.7c-1.5-0.4-3.2-0.9-3.2-2.7v0
		c0-1.7,1.4-2.8,3.3-2.8c1.2,0,2.5,0.4,3.5,1.1l-0.7,1.1c-0.9-0.6-1.9-0.9-2.8-0.9c-1.1,0-1.9,0.6-1.9,1.4v0c0,0.9,1.2,1.3,2.5,1.7
		c1.5,0.4,3.1,1,3.1,2.8v0c0,1.8-1.5,2.9-3.4,2.9C136.7,104.4,135.2,103.9,134.1,103z"/>
	<path class="st0" d="M143.6,103l0.7-1c1,0.8,2.2,1.2,3.3,1.2c1.2,0,2-0.6,2-1.5v0c0-1-1.1-1.3-2.4-1.7c-1.5-0.4-3.2-0.9-3.2-2.7v0
		c0-1.7,1.4-2.8,3.3-2.8c1.2,0,2.5,0.4,3.5,1.1l-0.7,1.1c-0.9-0.6-1.9-0.9-2.8-0.9c-1.1,0-1.9,0.6-1.9,1.4v0c0,0.9,1.2,1.3,2.5,1.7
		c1.5,0.4,3.1,1,3.1,2.8v0c0,1.8-1.5,2.9-3.4,2.9C146.2,104.4,144.7,103.9,143.6,103z"/>
	<path class="st0" d="M159.2,99.4L159.2,99.4c0-3.2,2.3-5,4.6-5c1.8,0,2.9,1,3.7,2v-5.8h1.4v13.6h-1.4v-1.9
		c-0.8,1.2-1.9,2.1-3.7,2.1C161.5,104.4,159.2,102.6,159.2,99.4z M167.5,99.4L167.5,99.4c0-2.3-1.7-3.7-3.5-3.7
		c-1.9,0-3.4,1.4-3.4,3.7v0c0,2.3,1.6,3.7,3.4,3.7C165.8,103.1,167.5,101.6,167.5,99.4z"/>
	<path class="st0" d="M172.3,94.6h1.4v2.5c0.7-1.6,2.1-2.8,3.9-2.7V96h-0.1c-2.1,0-3.8,1.5-3.8,4.4v3.8h-1.4V94.6z"/>
	<path class="st0" d="M179.5,99.4L179.5,99.4c0-2.8,2.1-5.1,5-5.1c2.9,0,5,2.3,5,5v0c0,2.7-2.1,5-5,5
		C181.6,104.4,179.5,102.2,179.5,99.4z M188.1,99.4L188.1,99.4c0-2.1-1.5-3.8-3.6-3.8c-2.1,0-3.5,1.7-3.5,3.7v0
		c0,2.1,1.5,3.7,3.6,3.7C186.6,103.1,188.1,101.5,188.1,99.4z"/>
	<path class="st0" d="M191.6,94.6h1.5l2.5,7.7l2.6-7.8h1.2l2.6,7.8l2.5-7.7h1.5l-3.4,9.7h-1.2l-2.6-7.6l-2.6,7.6H195L191.6,94.6z"/>
	<path class="st0" d="M207.9,103l0.7-1c1,0.8,2.2,1.2,3.3,1.2c1.2,0,2-0.6,2-1.5v0c0-1-1.1-1.3-2.4-1.7c-1.5-0.4-3.2-0.9-3.2-2.7v0
		c0-1.7,1.4-2.8,3.3-2.8c1.2,0,2.5,0.4,3.5,1.1l-0.7,1.1c-0.9-0.6-1.9-0.9-2.8-0.9c-1.1,0-1.9,0.6-1.9,1.4v0c0,0.9,1.2,1.3,2.5,1.7
		c1.5,0.4,3.1,1,3.1,2.8v0c0,1.8-1.5,2.9-3.4,2.9C210.5,104.4,209,103.9,207.9,103z"/>
	<path class="st0" d="M218.2,90.9h1.6v1.6h-1.6V90.9z M218.3,94.6h1.4v9.6h-1.4V94.6z"/>
	<path class="st0" d="M223.3,94.6h1.4v1.7c0.6-1,1.6-1.9,3.3-1.9c2.3,0,3.7,1.6,3.7,3.9v6h-1.4v-5.6c0-1.8-1-2.9-2.7-2.9
		c-1.7,0-2.9,1.2-2.9,3v5.5h-1.4V94.6z"/>
	<path class="st0" d="M239.3,103.2c1.3,0,2.3-0.5,3-1.4l0.9,0.8c-1,1.1-2.1,1.8-4,1.8c-2.6,0-4.8-2-4.8-5c0-2.8,2-5,4.6-5
		c2.8,0,4.5,2.3,4.5,5.1c0,0.1,0,0.3,0,0.5h-7.6C236.1,102,237.6,103.2,239.3,103.2z M242.1,98.8c-0.2-1.8-1.2-3.2-3.1-3.2
		c-1.7,0-2.9,1.4-3.1,3.2H242.1z"/>
	<path class="st0" d="M245.5,103l0.7-1c1,0.8,2.2,1.2,3.3,1.2c1.2,0,2-0.6,2-1.5v0c0-1-1.1-1.3-2.4-1.7c-1.5-0.4-3.2-0.9-3.2-2.7v0
		c0-1.7,1.4-2.8,3.3-2.8c1.2,0,2.5,0.4,3.5,1.1l-0.7,1.1c-0.9-0.6-1.9-0.9-2.8-0.9c-1.1,0-1.9,0.6-1.9,1.4v0c0,0.9,1.2,1.3,2.5,1.7
		c1.5,0.4,3.1,1,3.1,2.8v0c0,1.8-1.5,2.9-3.4,2.9C248.1,104.4,246.6,103.9,245.5,103z"/>
	<path class="st0" d="M255,103l0.7-1c1,0.8,2.2,1.2,3.3,1.2c1.2,0,2-0.6,2-1.5v0c0-1-1.1-1.3-2.4-1.7c-1.5-0.4-3.2-0.9-3.2-2.7v0
		c0-1.7,1.4-2.8,3.3-2.8c1.2,0,2.5,0.4,3.5,1.1l-0.7,1.1c-0.9-0.6-1.9-0.9-2.8-0.9c-1.1,0-1.9,0.6-1.9,1.4v0c0,0.9,1.2,1.3,2.5,1.7
		c1.5,0.4,3.1,1,3.1,2.8v0c0,1.8-1.5,2.9-3.4,2.9C257.6,104.4,256.1,103.9,255,103z"/>
</g>
<g>
	<g>
		<path class="st0" d="M178.4,69.3l2.9-2.9c4.9,4.9,10.6,8,16.3,8c8.6,0,14.6-6.1,14.6-13.7v-0.2c0-7.5-6.1-12.9-14.9-12.9
			c-5.1,0-8.9,1.6-12.3,3.4l-3.1-2l1.6-26.4H214v3.9h-27L185.7,47c3.5-1.7,7-3,12.1-3c10.5,0,18.7,6.7,18.7,16.4v0.2
			c0,10.3-8,17.5-19,17.5C190.1,78.1,183.1,74.1,178.4,69.3z"/>
		<path class="st0" d="M230.4,72.7c-4.5-4.5-6.9-10-6.9-21.2v-0.2c0-16.4,8.6-29.5,22.2-29.5c6.2,0,11,2.4,15.7,6.3l-2.6,3.1
			c-4.2-3.7-8.3-5.8-13.5-5.8c-11,0-18.2,11.6-17.8,28.2c3.1-5.3,8.2-10.1,17-10.1c9.9,0,18.7,6.8,18.7,16.5v0.2
			c0,10.3-8.3,17.9-19.1,17.9C238.7,78.1,233.7,75.9,230.4,72.7z M259.1,60.4v-0.2c0-7.5-6.1-13.1-14.8-13.1
			c-8.9,0-15.2,6.8-15.2,13.5v0.2c0,7.8,6.6,13.7,15.4,13.7C253.4,74.4,259.1,68.1,259.1,60.4z"/>
	</g>
	<g>
		<path class="st0" d="M271.4,29L271.4,29c0-3.5,2.4-6.4,5.8-6.4c3.4,0,5.8,2.8,5.8,6.2V29c0,3.4-2.4,6.3-5.8,6.3
			C273.7,35.3,271.4,32.4,271.4,29z M291.9,22.9h3.5l-18,24.6h-3.5L291.9,22.9z M279.9,29L279.9,29c0-2-1.1-3.7-2.7-3.7
			c-1.7,0-2.6,1.6-2.6,3.5V29c0,2,1.1,3.6,2.7,3.6C278.9,32.5,279.9,30.9,279.9,29z M286.3,41.6L286.3,41.6c0-3.5,2.4-6.4,5.8-6.4
			c3.4,0,5.8,2.8,5.8,6.2v0.1c0,3.4-2.4,6.3-5.8,6.3C288.6,47.8,286.3,45,286.3,41.6z M294.7,41.6L294.7,41.6c0-2-1.1-3.7-2.7-3.7
			c-1.7,0-2.6,1.6-2.6,3.5v0.1c0,2,1.1,3.6,2.7,3.6C293.8,45.1,294.7,43.5,294.7,41.6z"/>
	</g>
</g>
<g>
	<g>
		<polygon class="st1" points="66.9,106.8 39.8,80.1 42.8,77 66.9,100.8 90.7,77.1 93.7,80.1 		"/>
	</g>
	<g>
		<rect x="64.7" y="22.8" class="st1" width="4.3" height="80.4"/>
	</g>
</g>
<g>
	<path class="st2" d="M139.8,52.2h24.5 M164.3,52.2c0,6.8-5.5,12.2-12.2,12.2s-12.2-5.5-12.2-12.2c0-6.8,5.5-12.2,12.2-12.2
		S164.3,45.5,164.3,52.2z"/>
	<path class="st1" d="M155.5,53.7c0,1.9-1.5,3.4-3.4,3.4c-1.9,0-3.4-1.5-3.4-3.4H155.5z"/>
	<path class="st2" d="M109.8,52.2h24.5 M134.3,52.2c0,6.8-5.5,12.2-12.2,12.2c-6.8,0-12.2-5.5-12.2-12.2c0-6.8,5.5-12.2,12.2-12.2
		C128.8,40,134.3,45.5,134.3,52.2z"/>
	<path class="st1" d="M125.5,53.7c0,1.9-1.5,3.4-3.4,3.4c-1.9,0-3.4-1.5-3.4-3.4H125.5z"/>
</g>
</svg>
