<?xml version="1.0" encoding="utf-8"?>
<!-- Generator: Adobe Illustrator 21.0.2, SVG Export Plug-In . SVG Version: 6.00 Build 0)  -->
<svg version="1.1" id="Layer_1" xmlns="http://www.w3.org/2000/svg" xmlns:xlink="http://www.w3.org/1999/xlink" x="0px" y="0px"
	 viewBox="0 0 340.4 119.8" style="enable-background:new 0 0 340.4 119.8;" xml:space="preserve">
<style type="text/css">
	.st0{fill:#333F48;}
	.st1{fill:#39B3CA;}
	.st2{clip-path:url(#SVGID_2_);fill:none;stroke:#39B3CA;stroke-width:2.856;stroke-miterlimit:10;}
	.st3{fill:none;stroke:#39B3CA;stroke-width:1.1336;stroke-linecap:round;stroke-miterlimit:10;}
	.st4{fill:#FFFFFF;}
	.st5{font-family:'Gotham-Medium';}
	.st6{font-size:30.963px;}
</style>
<g>
	<path class="st0" d="M117.5,91.9h5.6c1.6,0,2.9,0.5,3.7,1.3c0.6,0.6,1,1.5,1,2.6v0c0,2.2-1.5,3.4-3.5,3.8l4,5.3h-1.8l-3.8-5.1h0
		H119v5.1h-1.5V91.9z M123,98.6c2,0,3.4-1,3.4-2.7v0c0-1.6-1.2-2.6-3.3-2.6h-4v5.3H123z"/>
	<path class="st0" d="M135,103.9c1.3,0,2.3-0.5,3-1.4l0.9,0.8c-1,1.1-2.1,1.8-4,1.8c-2.6,0-4.8-2-4.8-5c0-2.8,2-5,4.6-5
		c2.8,0,4.5,2.3,4.5,5.1c0,0.1,0,0.3,0,0.5h-7.6C131.8,102.8,133.3,103.9,135,103.9z M137.8,99.6c-0.2-1.8-1.2-3.2-3.1-3.2
		c-1.7,0-2.9,1.4-3.1,3.2H137.8z"/>
	<path class="st0" d="M141.2,100.2L141.2,100.2c0-3.2,2.3-5,4.6-5c1.8,0,2.9,1,3.7,2v-5.8h1.4v13.6h-1.4V103
		c-0.8,1.2-1.9,2.1-3.7,2.1C143.5,105.2,141.2,103.3,141.2,100.2z M149.6,100.1L149.6,100.1c0-2.3-1.7-3.7-3.5-3.7
		c-1.9,0-3.4,1.4-3.4,3.7v0c0,2.3,1.6,3.7,3.4,3.7C147.9,103.9,149.6,102.4,149.6,100.1z"/>
	<path class="st0" d="M154,101.3v-6h1.4v5.6c0,1.8,1,2.9,2.7,2.9c1.6,0,2.9-1.2,2.9-3v-5.5h1.4v9.6H161v-1.7c-0.7,1-1.6,1.9-3.3,1.9
		C155.3,105.2,154,103.6,154,101.3z"/>
	<path class="st0" d="M165,100.2L165,100.2c0-2.8,2.1-5.1,4.9-5.1c1.8,0,3,0.8,3.9,1.7l-0.9,1c-0.8-0.8-1.6-1.5-2.9-1.5
		c-2,0-3.4,1.7-3.4,3.7v0c0,2.1,1.5,3.7,3.5,3.7c1.2,0,2.2-0.6,2.9-1.4l0.9,0.9c-1,1.1-2.1,1.9-3.9,1.9
		C167.1,105.2,165,102.9,165,100.2z"/>
	<path class="st0" d="M180.5,103.9c1.3,0,2.3-0.5,3-1.4l0.9,0.8c-1,1.1-2.1,1.8-4,1.8c-2.6,0-4.8-2-4.8-5c0-2.8,2-5,4.6-5
		c2.8,0,4.5,2.3,4.5,5.1c0,0.1,0,0.3,0,0.5h-7.6C177.3,102.8,178.8,103.9,180.5,103.9z M183.3,99.6c-0.2-1.8-1.2-3.2-3.1-3.2
		c-1.7,0-2.9,1.4-3.1,3.2H183.3z"/>
	<path class="st0" d="M186.7,100.2L186.7,100.2c0-3.2,2.3-5,4.6-5c1.8,0,2.9,1,3.7,2v-5.8h1.4v13.6H195V103
		c-0.8,1.2-1.9,2.1-3.7,2.1C189,105.2,186.7,103.3,186.7,100.2z M195,100.1L195,100.1c0-2.3-1.7-3.7-3.5-3.7c-1.9,0-3.4,1.4-3.4,3.7
		v0c0,2.3,1.6,3.7,3.4,3.7C193.3,103.9,195,102.4,195,100.1z"/>
	<path class="st0" d="M209.5,103.9c1.3,0,2.3-0.5,3-1.4l0.9,0.8c-1,1.1-2.1,1.8-4,1.8c-2.6,0-4.8-2-4.8-5c0-2.8,2-5,4.6-5
		c2.8,0,4.5,2.3,4.5,5.1c0,0.1,0,0.3,0,0.5h-7.6C206.3,102.8,207.8,103.9,209.5,103.9z M212.3,99.6c-0.2-1.8-1.2-3.2-3.1-3.2
		c-1.7,0-2.9,1.4-3.1,3.2H212.3z"/>
	<path class="st0" d="M215.7,107.5l0.5-1.1c0.5,0.2,0.9,0.4,1.5,0.4c0.9,0,1.4-0.4,2-1.8l-4.4-9.6h1.6l3.5,8l3.1-8h1.5l-4,9.9
		c-0.8,2-1.8,2.7-3.2,2.7C216.9,108,216.3,107.8,215.7,107.5z"/>
	<path class="st0" d="M231.5,103.9c1.3,0,2.3-0.5,3-1.4l0.9,0.8c-1,1.1-2.1,1.8-4,1.8c-2.6,0-4.8-2-4.8-5c0-2.8,2-5,4.6-5
		c2.8,0,4.5,2.3,4.5,5.1c0,0.1,0,0.3,0,0.5h-7.6C228.3,102.8,229.8,103.9,231.5,103.9z M234.3,99.6c-0.2-1.8-1.2-3.2-3.1-3.2
		c-1.7,0-2.9,1.4-3.1,3.2H234.3z"/>
	<path class="st0" d="M237.5,103.7l0.7-1c1,0.8,2.2,1.2,3.3,1.2c1.2,0,2-0.6,2-1.5v0c0-1-1.1-1.3-2.4-1.7c-1.5-0.4-3.2-0.9-3.2-2.7
		v0c0-1.7,1.4-2.8,3.3-2.8c1.2,0,2.5,0.4,3.5,1.1l-0.7,1.1c-0.9-0.6-1.9-0.9-2.8-0.9c-1.1,0-1.9,0.6-1.9,1.4v0
		c0,0.9,1.2,1.3,2.5,1.7c1.5,0.4,3.1,1,3.1,2.8v0c0,1.8-1.5,2.9-3.4,2.9C240.1,105.1,238.5,104.6,237.5,103.7z"/>
	<path class="st0" d="M248,102.4v-5.8h-1.3v-1.3h1.3v-2.9h1.4v2.9h3.1v1.3h-3.1v5.6c0,1.2,0.7,1.6,1.6,1.6c0.5,0,0.9-0.1,1.4-0.3
		v1.2c-0.5,0.3-1,0.4-1.7,0.4C249.2,105.1,248,104.4,248,102.4z"/>
	<path class="st0" d="M255.1,95.3h1.4v2.5c0.7-1.6,2.1-2.8,3.9-2.7v1.5h-0.1c-2.1,0-3.8,1.5-3.8,4.4v3.8h-1.4V95.3z"/>
	<path class="st0" d="M261.9,102.2L261.9,102.2c0-2.1,1.7-3.2,4.1-3.2c1.2,0,2.1,0.2,2.9,0.4v-0.3c0-1.7-1-2.6-2.8-2.6
		c-1.1,0-2,0.3-2.9,0.7l-0.4-1.2c1.1-0.5,2.1-0.8,3.5-0.8c1.4,0,2.4,0.4,3.1,1.1c0.7,0.7,1,1.6,1,2.8v5.9h-1.4v-1.4
		c-0.7,0.9-1.8,1.6-3.5,1.6C263.7,105.2,261.9,104.1,261.9,102.2z M268.9,101.4v-0.9c-0.7-0.2-1.6-0.4-2.8-0.4
		c-1.8,0-2.8,0.8-2.8,1.9v0c0,1.2,1.1,1.9,2.4,1.9C267.5,104,268.9,102.9,268.9,101.4z"/>
	<path class="st0" d="M273.4,91.6h1.6v1.6h-1.6V91.6z M273.5,95.3h1.4v9.6h-1.4V95.3z"/>
	<path class="st0" d="M278.3,95.3h1.4V97c0.6-1,1.6-1.9,3.3-1.9c2.3,0,3.7,1.6,3.7,3.9v6h-1.4v-5.6c0-1.8-1-2.9-2.7-2.9
		c-1.7,0-2.9,1.2-2.9,3v5.5h-1.4V95.3z"/>
</g>
<g>
	<g>
		<path class="st0" d="M192.2,76.2l2.9-2.9c4.9,4.9,10.6,8,16.3,8c8.6,0,14.6-6.1,14.6-13.7v-0.2c0-7.5-6.1-12.9-14.9-12.9
			c-5.1,0-8.9,1.6-12.3,3.4l-3.1-2l1.6-26.4h30.6v3.9h-27l-1.3,20.4c3.5-1.7,7-3,12.1-3c10.5,0,18.7,6.7,18.7,16.4v0.2
			c0,10.3-8,17.5-19,17.5C203.9,85,197,81.1,192.2,76.2z"/>
		<path class="st0" d="M248.8,33.5L238.3,37l-1.1-3.2l12.4-4.6h3.1v54.8h-4V33.5z"/>
	</g>
	<g>
		<path class="st0" d="M265.1,32.9L265.1,32.9c0-3.5,2.4-6.4,5.8-6.4c3.4,0,5.8,2.8,5.8,6.2v0.1c0,3.4-2.4,6.3-5.8,6.3
			C267.4,39.2,265.1,36.3,265.1,32.9z M285.6,26.9h3.5l-18,24.6h-3.5L285.6,26.9z M273.6,32.9L273.6,32.9c0-2-1.1-3.7-2.7-3.7
			c-1.7,0-2.6,1.6-2.6,3.5v0.1c0,2,1.1,3.6,2.7,3.6C272.6,36.5,273.6,34.8,273.6,32.9z M280,45.5L280,45.5c0-3.5,2.4-6.4,5.8-6.4
			c3.4,0,5.8,2.8,5.8,6.2v0.1c0,3.4-2.4,6.3-5.8,6.3C282.3,51.8,280,48.9,280,45.5z M288.5,45.5L288.5,45.5c0-2-1.1-3.7-2.7-3.7
			c-1.7,0-2.6,1.6-2.6,3.5v0.1c0,2,1.1,3.6,2.7,3.6C287.5,49,288.5,47.4,288.5,45.5z"/>
	</g>
</g>
<g>
	<g>
		<polygon class="st1" points="72.4,108.4 45.2,81.7 48.2,78.7 72.4,102.5 96.1,78.7 99.1,81.7 		"/>
	</g>
	<g>
		<rect x="70.2" y="24.5" class="st1" width="4.3" height="80.4"/>
	</g>
</g>
<g>
	<g>
		<defs>
			<rect id="SVGID_1_" x="120.6" y="30.3" width="57.6" height="55.2"/>
		</defs>
		<clipPath id="SVGID_2_">
			<use xlink:href="#SVGID_1_"  style="overflow:visible;"/>
		</clipPath>
		<path class="st2" d="M168.5,70.4h-44.7c-1.2,0-2.1-1-2.1-2.1V38.5c0-1.2,1-2.1,2.1-2.1h44.7c1.2,0,2.1,1,2.1,2.1v29.8
			C170.6,69.4,169.7,70.4,168.5,70.4z"/>
	</g>
	<rect x="121.5" y="64.6" class="st1" width="48.9" height="5.1"/>
	<path class="st3" d="M140.1,47.3l-8.2,7.5 M152.7,45.5l-13.2,12 M160.4,48.2l-8.2,7.5"/>
	<path class="st1" d="M154.1,78.6h-16c-0.6,0-1-0.5-1-1c0-0.6,0.5-1,1-1h16c0.6,0,1,0.5,1,1C155.1,78.1,154.6,78.6,154.1,78.6"/>
</g>
<text transform="matrix(1 0 0 1 165.7378 104.9862)" class="st4 st5 st6"> </text>
</svg>
