<?xml version="1.0" encoding="utf-8"?>
<!-- Generator: Adobe Illustrator 21.0.2, SVG Export Plug-In . SVG Version: 6.00 Build 0)  -->
<svg version="1.1" id="Layer_1" xmlns="http://www.w3.org/2000/svg" xmlns:xlink="http://www.w3.org/1999/xlink" x="0px" y="0px"
	 viewBox="0 0 24.3 24.4" style="enable-background:new 0 0 24.3 24.4;" xml:space="preserve">
<style type="text/css">
	.st0{fill:#1A1A1A;}
</style>
<path class="st0" d="M12.1,0c3.3,0,6.4,1.4,8.6,3.6s3.6,5.2,3.6,8.6c0,3.3-1.4,6.4-3.6,8.6s-5.2,3.6-8.6,3.6c-3.3,0-6.4-1.4-8.6-3.6
	C1.4,18.5,0,15.5,0,12.1c0-3.3,1.4-6.4,3.6-8.6C5.7,1.4,8.8,0,12.1,0 M20,4.2c-2-2-4.8-3.3-7.9-3.3C9,0.9,6.2,2.2,4.2,4.2
	S0.9,9,0.9,12.1S2.2,18,4.2,20s4.8,3.3,7.9,3.3S18,22.1,20,20c2-2,3.3-4.8,3.3-7.9S22,6.2,20,4.2"/>
<path class="st0" d="M13,9.6v-1C13,8.1,13.3,8,13.5,8H15V5.9h-1.9c-2.1,0-2.6,1.6-2.6,2.6v1.1H9.2v1.5v1h1.2v6.2H13v-6.2h1.8l0.1-1
	L15,9.6H13z"/>
</svg>
