<?xml version="1.0" encoding="utf-8"?>
<!-- Generator: Adobe Illustrator 21.0.2, SVG Export Plug-In . SVG Version: 6.00 Build 0)  -->
<svg version="1.1" id="Layer_1" xmlns="http://www.w3.org/2000/svg" xmlns:xlink="http://www.w3.org/1999/xlink" x="0px" y="0px"
	 viewBox="0 0 340.8 119.8" style="enable-background:new 0 0 340.8 119.8;" xml:space="preserve">
<style type="text/css">
	.st0{fill:#333F48;}
	.st1{fill:#FFFFFF;}
	.st2{font-family:'Gotham-Medium';}
	.st3{font-size:30.963px;}
	.st4{fill:#39B3CA;}
	.st5{fill:none;stroke:#39B3CA;stroke-width:2.6166;stroke-miterlimit:10;}
</style>
<g>
	<path class="st0" d="M112,92.1h9.4v1.4h-7.9v4.7h7.1v1.3h-7.1v5.7H112V92.1z"/>
	<path class="st0" d="M128.2,104.1c1.3,0,2.3-0.5,3-1.4l0.9,0.8c-1,1.1-2.1,1.8-4,1.8c-2.6,0-4.8-2-4.8-5c0-2.8,2-5,4.6-5
		c2.8,0,4.5,2.3,4.5,5.1c0,0.1,0,0.3,0,0.5h-7.6C125.1,103,126.5,104.1,128.2,104.1z M131,99.8c-0.2-1.8-1.2-3.2-3.1-3.2
		c-1.7,0-2.9,1.4-3.1,3.2H131z"/>
	<path class="st0" d="M134.2,95.5h1.5l2.5,7.7l2.6-7.8h1.2l2.6,7.8l2.5-7.7h1.5l-3.4,9.7H144l-2.6-7.6l-2.6,7.6h-1.3L134.2,95.5z"/>
	<path class="st0" d="M155.3,104.1c1.3,0,2.3-0.5,3-1.4l0.9,0.8c-1,1.1-2.1,1.8-4,1.8c-2.6,0-4.8-2-4.8-5c0-2.8,2-5,4.6-5
		c2.8,0,4.5,2.3,4.5,5.1c0,0.1,0,0.3,0,0.5h-7.6C152.1,103,153.6,104.1,155.3,104.1z M158.1,99.8c-0.2-1.8-1.2-3.2-3.1-3.2
		c-1.7,0-2.9,1.4-3.1,3.2H158.1z"/>
	<path class="st0" d="M162.1,95.5h1.4v2.5c0.7-1.6,2.1-2.8,3.9-2.7v1.5h-0.1c-2.1,0-3.8,1.5-3.8,4.4v3.8h-1.4V95.5z"/>
	<path class="st0" d="M175.2,91.6h1.4v5.6c0.6-1,1.6-1.9,3.3-1.9c2.3,0,3.7,1.6,3.7,3.9v6h-1.4v-5.6c0-1.8-1-2.9-2.7-2.9
		c-1.7,0-2.9,1.2-2.9,3v5.5h-1.4V91.6z"/>
	<path class="st0" d="M190.9,104.1c1.3,0,2.3-0.5,3-1.4l0.9,0.8c-1,1.1-2.1,1.8-4,1.8c-2.6,0-4.8-2-4.8-5c0-2.8,2-5,4.6-5
		c2.8,0,4.5,2.3,4.5,5.1c0,0.1,0,0.3,0,0.5h-7.6C187.7,103,189.2,104.1,190.9,104.1z M193.7,99.8c-0.2-1.8-1.2-3.2-3.1-3.2
		c-1.7,0-2.9,1.4-3.1,3.2H193.7z"/>
	<path class="st0" d="M197,102.4L197,102.4c0-2.1,1.7-3.2,4.1-3.2c1.2,0,2.1,0.2,2.9,0.4v-0.3c0-1.7-1-2.6-2.8-2.6
		c-1.1,0-2,0.3-2.9,0.7l-0.4-1.2c1.1-0.5,2.1-0.8,3.5-0.8c1.4,0,2.4,0.4,3.1,1.1c0.7,0.7,1,1.6,1,2.8v5.9H204v-1.4
		c-0.7,0.9-1.8,1.6-3.5,1.6C198.7,105.4,197,104.4,197,102.4z M204,101.6v-0.9c-0.7-0.2-1.6-0.4-2.8-0.4c-1.8,0-2.8,0.8-2.8,1.9v0
		c0,1.2,1.1,1.9,2.4,1.9C202.6,104.2,204,103.2,204,101.6z"/>
	<path class="st0" d="M207.9,100.4L207.9,100.4c0-3.2,2.3-5,4.6-5c1.8,0,2.9,1,3.7,2v-5.8h1.4v13.6h-1.4v-1.9
		c-0.8,1.2-1.9,2.1-3.7,2.1C210.2,105.4,207.9,103.6,207.9,100.4z M216.2,100.4L216.2,100.4c0-2.3-1.7-3.7-3.5-3.7
		c-1.9,0-3.4,1.4-3.4,3.7v0c0,2.3,1.6,3.7,3.4,3.7C214.6,104.1,216.2,102.6,216.2,100.4z"/>
	<path class="st0" d="M220.1,102.4L220.1,102.4c0-2.1,1.7-3.2,4.1-3.2c1.2,0,2.1,0.2,2.9,0.4v-0.3c0-1.7-1-2.6-2.8-2.6
		c-1.1,0-2,0.3-2.9,0.7l-0.4-1.2c1.1-0.5,2.1-0.8,3.5-0.8c1.4,0,2.4,0.4,3.1,1.1c0.7,0.7,1,1.6,1,2.8v5.9h-1.4v-1.4
		c-0.7,0.9-1.8,1.6-3.5,1.6C221.9,105.4,220.1,104.4,220.1,102.4z M227.2,101.6v-0.9c-0.7-0.2-1.6-0.4-2.8-0.4
		c-1.8,0-2.8,0.8-2.8,1.9v0c0,1.2,1.1,1.9,2.4,1.9C225.7,104.2,227.2,103.2,227.2,101.6z"/>
	<path class="st0" d="M231,100.4L231,100.4c0-2.8,2.1-5.1,4.9-5.1c1.8,0,3,0.8,3.9,1.7l-0.9,1c-0.8-0.8-1.6-1.5-2.9-1.5
		c-2,0-3.4,1.7-3.4,3.7v0c0,2.1,1.5,3.7,3.5,3.7c1.2,0,2.2-0.6,2.9-1.4l0.9,0.9c-1,1.1-2.1,1.9-3.9,1.9
		C233.1,105.4,231,103.1,231,100.4z"/>
	<path class="st0" d="M242.2,91.6h1.4v5.6c0.6-1,1.6-1.9,3.3-1.9c2.3,0,3.7,1.6,3.7,3.9v6h-1.4v-5.6c0-1.8-1-2.9-2.7-2.9
		c-1.7,0-2.9,1.2-2.9,3v5.5h-1.4V91.6z"/>
	<path class="st0" d="M258,104.1c1.3,0,2.3-0.5,3-1.4l0.9,0.8c-1,1.1-2.1,1.8-4,1.8c-2.6,0-4.8-2-4.8-5c0-2.8,2-5,4.6-5
		c2.8,0,4.5,2.3,4.5,5.1c0,0.1,0,0.3,0,0.5h-7.6C254.8,103,256.3,104.1,258,104.1z M260.8,99.8c-0.2-1.8-1.2-3.2-3.1-3.2
		c-1.7,0-2.9,1.4-3.1,3.2H260.8z"/>
	<path class="st0" d="M263.9,103.9l0.7-1c1,0.8,2.2,1.2,3.3,1.2c1.2,0,2-0.6,2-1.5v0c0-1-1.1-1.3-2.4-1.7c-1.5-0.4-3.2-0.9-3.2-2.7
		v0c0-1.7,1.4-2.8,3.3-2.8c1.2,0,2.5,0.4,3.5,1.1l-0.7,1.1c-0.9-0.6-1.9-0.9-2.8-0.9c-1.1,0-1.9,0.6-1.9,1.4v0
		c0,0.9,1.2,1.3,2.5,1.7c1.5,0.4,3.1,1,3.1,2.8v0c0,1.8-1.5,2.9-3.4,2.9C266.5,105.4,265,104.8,263.9,103.9z"/>
</g>
<g>
	<g>
		<path class="st0" d="M183.4,79.6c-4.6-4.6-7-10.1-7-21.5V58c0-16.6,8.7-29.8,22.4-29.8c6.3,0,11.1,2.4,15.9,6.4l-2.6,3.1
			c-4.2-3.8-8.4-5.8-13.6-5.8c-11.2,0-18.4,11.7-18,28.5c3.1-5.3,8.3-10.2,17.2-10.2c10,0,18.9,6.8,18.9,16.7V67
			c0,10.4-8.4,18.1-19.3,18.1C191.7,85.1,186.7,82.9,183.4,79.6z M212.4,67.2V67c0-7.5-6.2-13.2-14.9-13.2c-9,0-15.3,6.8-15.3,13.6
			v0.2c0,7.9,6.7,13.8,15.6,13.8C206.6,81.4,212.4,75,212.4,67.2z"/>
		<path class="st0" d="M223.5,75.2l3.1-2.6c4.4,5.6,9.9,8.8,17.1,8.8c7.4,0,13.6-5,13.6-12.2c0-0.1,0-0.2,0-0.2
			c0-7.7-7.2-11.9-17.1-11.9h-3l-1-2.3L255.2,33h-28.8v-3.9h34.4v2.9l-18.6,21.3c10.5,0.6,19.5,5.5,19.5,15.6c0,0,0,0.1,0,0.2
			c0,9.6-8.4,16-17.9,16C234.8,85.1,228,81,223.5,75.2z"/>
	</g>
	<g>
		<path class="st0" d="M269.8,35.5L269.8,35.5c0-3.5,2.4-6.4,5.9-6.4c3.5,0,5.8,2.9,5.8,6.3v0.1c0,3.4-2.4,6.4-5.9,6.4
			C272.2,41.8,269.8,38.9,269.8,35.5z M290.5,29.4h3.5l-18.2,24.9h-3.5L290.5,29.4z M278.4,35.5L278.4,35.5c0-2.1-1.1-3.7-2.7-3.7
			c-1.7,0-2.7,1.6-2.7,3.6v0.1c0,2,1.1,3.6,2.7,3.6C277.4,39.1,278.4,37.4,278.4,35.5z M284.8,48.3L284.8,48.3
			c0-3.5,2.4-6.4,5.9-6.4c3.5,0,5.8,2.9,5.8,6.3v0.1c0,3.4-2.4,6.4-5.9,6.4C287.2,54.5,284.8,51.7,284.8,48.3z M293.4,48.3
			L293.4,48.3c0-2.1-1.1-3.7-2.7-3.7c-1.7,0-2.7,1.6-2.7,3.6v0.1c0,2,1.1,3.6,2.7,3.6C292.4,51.8,293.4,50.2,293.4,48.3z"/>
	</g>
</g>
<text transform="matrix(1 0 0 1 165.7378 22.9862)" class="st1 st2 st3"> </text>
<g>
	<g>
		<polygon class="st4" points="68.2,108.7 41.1,82 44,78.9 68.2,102.7 91.9,78.9 94.9,81.9 		"/>
	</g>
	<g>
		<rect x="66" y="24.7" class="st4" width="4.3" height="80.4"/>
	</g>
</g>
<g>
	<polygon class="st4" points="142,20.3 139.2,20.3 135.5,26.3 138.2,26.3 135.9,30.8 142.7,24.5 139.7,24.5 	"/>
	<polygon class="st4" points="152.1,24.1 149.3,24.1 145.6,30 148.3,30 146,34.5 152.7,28.2 149.8,28.2 	"/>
	<polygon class="st4" points="131.9,24.1 129.1,24.1 125.4,30 128.2,30 125.9,34.5 132.6,28.2 129.6,28.2 	"/>
	<path class="st5" d="M147.1,47.1c0,6-4.2,10.8-9.5,10.8c-5.2,0-9.5-4.8-9.5-10.8s4.2-10.8,9.5-10.8
		C142.9,36.3,147.1,41.1,147.1,47.1z M160.6,75.6c-1.1-3.4-2.2-5.5-2.2-5.5c-0.4-1-1.4-1.6-2.4-2l-10-3l-3.1-2.6l-5,4.9h0h-0.6h0
		l-5-4.9l-3.1,2.6l-10,3 M119.4,68.1c-1,0.4-1.9,1-2.4,2c0,0-0.9,2.2-1.9,4.9"/>
</g>
</svg>
