<?xml version="1.0" encoding="utf-8"?>
<!-- Generator: Adobe Illustrator 21.0.2, SVG Export Plug-In . SVG Version: 6.00 Build 0)  -->
<svg version="1.1" id="Layer_1" xmlns="http://www.w3.org/2000/svg" xmlns:xlink="http://www.w3.org/1999/xlink" x="0px" y="0px"
	 viewBox="0 0 144 144" style="enable-background:new 0 0 144 144;" xml:space="preserve">
<style type="text/css">
	.st0{fill:#333F48;}
	.st1{fill:#FFFFFF;stroke:#333F48;stroke-width:0.5332;stroke-miterlimit:10;}
	.st2{fill:#FFFFFF;stroke:#FFFFFF;stroke-width:0.4131;stroke-miterlimit:10;}
	.st3{fill:none;stroke:#FFFFFF;stroke-width:1.0685;stroke-miterlimit:10;}
</style>
<circle class="st0" cx="72" cy="72" r="72"/>
<g>
	<g>
		<g>
			<path class="st1" d="M92.6,99.7H36.4c-0.7,0-1.2-0.5-1.2-1.2V43.1c0-0.7,0.5-1.2,1.2-1.2h56.2c0.7,0,1.2,0.5,1.2,1.2v55.4
				C93.8,99.2,93.2,99.7,92.6,99.7z M37.6,97.3h53.8v-53H37.6V97.3z"/>
		</g>
		<g>
			<path class="st1" d="M61.9,94.4H41.8c-0.7,0-1.2-0.5-1.2-1.2V48.5c0-0.7,0.5-1.2,1.2-1.2h20.1c0.7,0,1.2,0.5,1.2,1.2v44.7
				C63.1,93.8,62.6,94.4,61.9,94.4z M43,92h17.7V49.7H43V92z"/>
		</g>
		<g>
			<path class="st1" d="M87.2,94.4H67.3c-0.7,0-1.2-0.5-1.2-1.2v-26c0-0.7,0.5-1.2,1.2-1.2h19.9c0.7,0,1.2,0.5,1.2,1.2v26
				C88.4,93.8,87.9,94.4,87.2,94.4z M68.5,92H86V68.4H68.5V92z"/>
		</g>
		<g>
			<path class="st1" d="M87.2,63H67.3c-0.7,0-1.2-0.5-1.2-1.2V48.5c0-0.7,0.5-1.2,1.2-1.2h19.9c0.7,0,1.2,0.5,1.2,1.2v13.4
				C88.4,62.5,87.9,63,87.2,63z M68.5,60.6H86v-11H68.5V60.6z"/>
		</g>
		<g>
			<path class="st1" d="M45.7,62c-0.3,0-0.6-0.1-0.8-0.3c-0.5-0.5-0.5-1.2,0-1.7l6.5-6.5c0.5-0.5,1.2-0.5,1.7,0
				c0.5,0.5,0.5,1.2,0,1.7l-6.5,6.5C46.3,61.9,46,62,45.7,62z"/>
		</g>
		<g>
			<path class="st1" d="M50.1,63.5c-0.3,0-0.6-0.1-0.8-0.3c-0.5-0.5-0.5-1.2,0-1.7l3.5-3.5c0.5-0.5,1.2-0.5,1.7,0
				c0.5,0.5,0.5,1.2,0,1.7L51,63.2C50.7,63.4,50.4,63.5,50.1,63.5z"/>
		</g>
		<g>
			<path class="st1" d="M76.8,78.6c-0.3,0-0.6-0.1-0.8-0.3c-0.5-0.5-0.5-1.2,0-1.7l4.1-4.1c0.5-0.5,1.2-0.5,1.7,0
				c0.5,0.5,0.5,1.2,0,1.7l-4.1,4.1C77.4,78.5,77.1,78.6,76.8,78.6z"/>
		</g>
		<g>
			<path class="st1" d="M79.4,81.9c-0.3,0-0.6-0.1-0.8-0.3c-0.5-0.5-0.5-1.2,0-1.7l3.5-3.5c0.5-0.5,1.2-0.5,1.7,0
				c0.5,0.5,0.5,1.2,0,1.7l-3.5,3.5C80,81.8,79.7,81.9,79.4,81.9z"/>
		</g>
		<g>
			<path class="st1" d="M76.7,56c-0.3,0-0.6-0.1-0.8-0.3c-0.5-0.5-0.5-1.2,0-1.7l1.9-1.9c0.5-0.5,1.2-0.5,1.7,0
				c0.5,0.5,0.5,1.2,0,1.7l-1.9,1.9C77.3,55.9,77,56,76.7,56z"/>
		</g>
		<g>
			<path class="st1" d="M79.3,59.5c-0.3,0-0.6-0.1-0.8-0.3c-0.5-0.5-0.5-1.2,0-1.7l3.5-3.5c0.5-0.5,1.2-0.5,1.7,0
				c0.5,0.5,0.5,1.2,0,1.7l-3.5,3.5C79.9,59.3,79.6,59.5,79.3,59.5z"/>
		</g>
	</g>
	<g>
		<g>
			<path class="st2" d="M112.5,57.6h-10.8c-0.9,0-1.5,0.7-1.5,1.6v22.4c0,0.9,0.7,1.6,1.5,1.6h10.8c0.9,0,1.5-0.7,1.5-1.6V59.2
				C114,58.3,113.3,57.6,112.5,57.6z M113.2,81.6c0,0.4-0.3,0.8-0.8,0.8h-10.8c-0.4,0-0.8-0.4-0.8-0.8V80h12.3V81.6z M113.2,79.2
				h-12.3V61.6h12.3V79.2z M113.2,60.8h-12.3v-1.6c0-0.4,0.3-0.8,0.8-0.8h10.8c0.4,0,0.8,0.4,0.8,0.8V60.8z"/>
			<path class="st2" d="M105.9,81.6h2.3c0.2,0,0.4-0.2,0.4-0.4c0-0.2-0.2-0.4-0.4-0.4h-2.3c-0.2,0-0.4,0.2-0.4,0.4
				C105.5,81.4,105.7,81.6,105.9,81.6z"/>
			<path class="st2" d="M108.2,59.2h-2.3c-0.2,0-0.4,0.2-0.4,0.4c0,0.2,0.2,0.4,0.4,0.4h2.3c0.2,0,0.4-0.2,0.4-0.4
				C108.6,59.4,108.4,59.2,108.2,59.2z"/>
			<ellipse class="st2" cx="102.1" cy="59.6" rx="0.4" ry="0.4"/>
		</g>
		<ellipse class="st3" cx="107" cy="70.4" rx="3.8" ry="4"/>
	</g>
</g>
</svg>
