<?xml version="1.0" encoding="utf-8"?>
<!-- Generator: Adobe Illustrator 21.0.2, SVG Export Plug-In . SVG Version: 6.00 Build 0)  -->
<svg version="1.1" id="Layer_1" xmlns="http://www.w3.org/2000/svg" xmlns:xlink="http://www.w3.org/1999/xlink" x="0px" y="0px"
	 viewBox="0 0 24.3 24.4" style="enable-background:new 0 0 24.3 24.4;" xml:space="preserve">
<style type="text/css">
	.st0{fill:#1A1A1A;}
</style>
<path class="st0" d="M12.1,0c3.3,0,6.4,1.4,8.6,3.6s3.6,5.2,3.6,8.6c0,3.3-1.4,6.4-3.6,8.6s-5.2,3.6-8.6,3.6S5.7,23,3.5,20.8
	C1.4,18.5,0,15.5,0,12.1c0-3.3,1.4-6.4,3.6-8.6C5.7,1.4,8.8,0,12.1,0 M20,4.2c-2-2-4.8-3.3-7.9-3.3C9,0.9,6.2,2.2,4.2,4.2
	S0.9,9,0.9,12.1S2.1,18,4.2,20c2,2,4.8,3.3,7.9,3.3S18,22.1,20,20c2-2,3.3-4.8,3.3-7.9S22,6.2,20,4.2"/>
<path class="st0" d="M7.1,11.6V17h2.6v-5.8V9.7H7.1V11.6z M17.9,11.9c-0.2-1.4-0.8-2.2-2.7-2.2c-1.1,0-1.8,0.4-2.1,1l0,0v-1h-2v1.4
	V17h2.1v-3.6c0-1,0.2-1.9,1.4-1.9s1.3,1.1,1.3,1.9V17H18v-4C18,12.6,18,12.2,17.9,11.9 M8.3,6C7.6,6,7.1,6.6,7.1,7.3
	s0.6,1.3,1.3,1.3C9,8.6,9.6,8,9.6,7.3S9,6,8.3,6"/>
</svg>
