<?xml version="1.0" encoding="utf-8"?>
<!-- Generator: Adobe Illustrator 21.0.2, SVG Export Plug-In . SVG Version: 6.00 Build 0)  -->
<svg version="1.1" id="Layer_1" xmlns="http://www.w3.org/2000/svg" xmlns:xlink="http://www.w3.org/1999/xlink" x="0px" y="0px"
	 viewBox="0 0 144 144" style="enable-background:new 0 0 144 144;" xml:space="preserve">
<style type="text/css">
	.st0{fill:#39B3CA;}
	.st1{fill:#FFFFFF;}
	.st2{fill:#FFFFFF;stroke:#39B3CA;stroke-width:0.497;stroke-miterlimit:10;}
</style>
<circle class="st0" cx="72" cy="72" r="72"/>
<g>
	<g>
		<g>
			<g>
				<path class="st1" d="M91.3,103.6l-2.3-2.3l2.9-2.9l2.3,2.3L91.3,103.6z M90.4,101.3l0.9,0.9l1.5-1.5l-0.9-0.9L90.4,101.3z"/>
			</g>
			<g>
				<path class="st1" d="M103.5,115.7l-2.3-2.3l2.9-2.9l2.3,2.3L103.5,115.7z M102.5,113.4l0.9,0.9l1.5-1.5l-0.9-0.9L102.5,113.4z"
					/>
			</g>
			<g>
				<path class="st1" d="M81.8,104.4c-3.4,0-6.8-1.3-9.4-3.9c-2.5-2.5-3.9-5.8-3.9-9.4c0-3.5,1.4-6.9,3.9-9.4l0,0l0,0
					c5.2-5.2,13.6-5.2,18.8,0c2.5,2.5,3.9,5.8,3.9,9.4c0,3.5-1.4,6.9-3.9,9.4C88.6,103.1,85.2,104.4,81.8,104.4z M81.8,78.9
					c-3.1,0-6.3,1.2-8.7,3.6l0,0c-2.3,2.3-3.6,5.4-3.6,8.7c0,3.3,1.3,6.4,3.6,8.7c4.8,4.8,12.6,4.8,17.4,0c2.3-2.3,3.6-5.4,3.6-8.7
					c0-3.3-1.3-6.4-3.6-8.7C88.1,80.1,84.9,78.9,81.8,78.9z M81.8,102.1c-2.8,0-5.6-1.1-7.8-3.2c-4.3-4.3-4.3-11.3,0-15.6
					c4.3-4.3,11.3-4.3,15.6,0l0,0c4.3,4.3,4.3,11.3,0,15.6C87.4,101.1,84.6,102.1,81.8,102.1z M81.8,81.1c-2.6,0-5.1,1-7.1,2.9
					c-3.9,3.9-3.9,10.3,0,14.2c3.9,3.9,10.3,3.9,14.2,0c3.9-3.9,3.9-10.3,0-14.2C86.9,82.1,84.3,81.1,81.8,81.1z M75.7,97.2
					c-0.6-0.6-1-1.2-1.4-1.9l0.9-0.5c0.3,0.6,0.8,1.2,1.3,1.7L75.7,97.2z M89.7,94.3l-0.9-0.4c0.7-1.9,0.7-4.1-0.2-5.9l0.9-0.4
					C90.5,89.7,90.6,92.1,89.7,94.3z M73.6,93.5c-0.9-3,0-6.2,2.2-8.4l0.7,0.7c-2,2-2.7,4.8-1.9,7.5L73.6,93.5z"/>
			</g>
			<g>
				<g>
					<path class="st1" d="M101.2,114.7L90,103.5l4.1-4.1l11.2,11.2L101.2,114.7z M91.4,103.5l9.8,9.8l2.7-2.7l-9.8-9.8L91.4,103.5z"
						/>
				</g>
				<g>
					<g>
						
							<rect x="98.6" y="109.9" transform="matrix(0.7071 -0.7071 0.7071 0.7071 -48.4753 103.784)" class="st1" width="4.8" height="1"/>
					</g>
					<g>
						
							<rect x="91.9" y="103.2" transform="matrix(0.7071 -0.7072 0.7072 0.7071 -45.6991 97.0909)" class="st1" width="4.8" height="1"/>
					</g>
				</g>
			</g>
		</g>
	</g>
	<g>
		<path class="st2" d="M64.3,56.7c-0.4-0.6-1.2-0.8-1.8-0.5l-6.9,4c-0.6,0.4-0.8,1.2-0.5,1.8c0.2,0.4,0.7,0.7,1.1,0.7
			c0.2,0,0.5-0.1,0.7-0.2l6.9-4C64.5,58.1,64.7,57.3,64.3,56.7z"/>
		<path class="st2" d="M62.5,63.6l-6.9,4c-0.6,0.4-0.8,1.2-0.5,1.8c0.2,0.4,0.7,0.7,1.1,0.7c0.2,0,0.5-0.1,0.7-0.2l6.9-4
			c0.6-0.4,0.8-1.2,0.5-1.8C63.9,63.5,63.1,63.3,62.5,63.6z"/>
		<path class="st2" d="M86.2,56.7c-0.4-0.6-1.2-0.8-1.8-0.5l-6.9,4c-0.6,0.4-0.8,1.2-0.5,1.8c0.2,0.4,0.7,0.7,1.1,0.7
			c0.2,0,0.5-0.1,0.7-0.2l6.9-4C86.4,58.1,86.6,57.3,86.2,56.7z"/>
		<path class="st2" d="M84.4,63.6l-6.9,4c-0.6,0.4-0.8,1.2-0.5,1.8c0.2,0.4,0.7,0.7,1.1,0.7c0.2,0,0.5-0.1,0.7-0.2l6.9-4
			c0.6-0.4,0.8-1.2,0.5-1.8C85.9,63.5,85.1,63.3,84.4,63.6z"/>
		<path class="st2" d="M98.5,40H42.9c-0.7,0-1.3,0.6-1.3,1.3v43.6c0,0.7,0.6,1.3,1.3,1.3h18c0.7,0,1.3-0.6,1.3-1.3
			c0-0.7-0.6-1.3-1.3-1.3H44.3v-41h52.9v38c0,0.7,0.6,1.3,1.3,1.3c0.7,0,1.3-0.6,1.3-1.3V41.3C99.8,40.6,99.2,40,98.5,40z"/>
		<path class="st2" d="M92.6,76.6c0.7,0,1.3-0.6,1.3-1.3V47.1c0-0.7-0.6-1.3-1.3-1.3H48.8c-0.7,0-1.3,0.6-1.3,1.3V79
			c0,0.7,0.6,1.3,1.3,1.3h17.8c0.7,0,1.3-0.6,1.3-1.3c0-0.7-0.6-1.3-1.3-1.3H50.1V48.4h19.3v25.4c0,0.7,0.6,1.3,1.3,1.3
			c0.7,0,1.3-0.6,1.3-1.3V48.4h19.3v26.8C91.3,76,91.9,76.6,92.6,76.6z"/>
	</g>
</g>
</svg>
