<?xml version="1.0" encoding="utf-8"?>
<!-- Generator: Adobe Illustrator 21.0.2, SVG Export Plug-In . SVG Version: 6.00 Build 0)  -->
<svg version="1.1" id="Layer_1" xmlns="http://www.w3.org/2000/svg" xmlns:xlink="http://www.w3.org/1999/xlink" x="0px" y="0px"
	 viewBox="0 0 340.1 119.8" style="enable-background:new 0 0 340.1 119.8;" xml:space="preserve">
<style type="text/css">
	.st0{fill:#333F48;}
	.st1{fill:#FFFFFF;}
	.st2{font-family:'Gotham-Medium';}
	.st3{font-size:30.963px;}
	.st4{fill:#39B3CA;}
</style>
<g>
	<path class="st0" d="M116,91.6h1.5v5.8h7.5v-5.8h1.5v13H125v-5.9h-7.5v5.9H116V91.6z"/>
	<path class="st0" d="M129.9,91.3h1.6v1.6h-1.6V91.3z M130,95h1.4v9.6H130V95z"/>
	<path class="st0" d="M134.7,106.3l0.7-1.1c1.1,0.8,2.3,1.2,3.7,1.2c2.1,0,3.5-1.2,3.5-3.4v-1.1c-0.8,1.1-2,2-3.8,2
		c-2.3,0-4.5-1.7-4.5-4.5v0c0-2.8,2.2-4.5,4.5-4.5c1.8,0,3,0.9,3.8,1.9V95h1.4v7.9c0,1.5-0.4,2.6-1.2,3.4c-0.9,0.9-2.1,1.3-3.7,1.3
		C137.4,107.6,136,107.2,134.7,106.3z M142.6,99.4L142.6,99.4c0-2-1.7-3.3-3.5-3.3c-1.8,0-3.3,1.3-3.3,3.2v0c0,1.9,1.5,3.3,3.3,3.3
		C140.8,102.6,142.6,101.3,142.6,99.4z"/>
	<path class="st0" d="M147.1,91h1.4v5.6c0.6-1,1.6-1.9,3.3-1.9c2.3,0,3.7,1.6,3.7,3.9v6h-1.4V99c0-1.8-1-2.9-2.7-2.9
		c-1.7,0-2.9,1.2-2.9,3v5.5h-1.4V91z"/>
	<path class="st0" d="M162.9,103.6c1.3,0,2.3-0.5,3-1.4l0.9,0.8c-1,1.1-2.1,1.8-4,1.8c-2.6,0-4.8-2-4.8-5c0-2.8,2-5,4.6-5
		c2.8,0,4.5,2.3,4.5,5.1c0,0.1,0,0.3,0,0.5h-7.6C159.7,102.4,161.2,103.6,162.9,103.6z M165.7,99.2c-0.2-1.8-1.2-3.2-3.1-3.2
		c-1.7,0-2.9,1.4-3.1,3.2H165.7z"/>
	<path class="st0" d="M169.6,95h1.4v2.5c0.7-1.6,2.1-2.8,3.9-2.7v1.5h-0.1c-2.1,0-3.8,1.5-3.8,4.4v3.8h-1.4V95z"/>
	<path class="st0" d="M182.8,95h1.4v1.9c0.8-1.2,1.9-2.1,3.7-2.1c2.3,0,4.6,1.8,4.6,5v0c0,3.1-2.3,5-4.6,5c-1.8,0-2.9-1-3.7-2v4.8
		h-1.4V95z M191,99.8L191,99.8c0-2.3-1.6-3.8-3.4-3.8c-1.8,0-3.5,1.5-3.5,3.7v0c0,2.2,1.7,3.7,3.5,3.7
		C189.5,103.5,191,102.2,191,99.8z"/>
	<path class="st0" d="M195.1,95h1.4v2.5c0.7-1.6,2.1-2.8,3.9-2.7v1.5h-0.1c-2.1,0-3.8,1.5-3.8,4.4v3.8h-1.4V95z"/>
	<path class="st0" d="M202.1,99.9L202.1,99.9c0-2.8,2.1-5.1,5-5.1c2.9,0,5,2.3,5,5v0c0,2.7-2.1,5-5,5
		C204.2,104.8,202.1,102.6,202.1,99.9z M210.6,99.9L210.6,99.9c0-2.1-1.5-3.8-3.6-3.8c-2.1,0-3.5,1.7-3.5,3.7v0
		c0,2.1,1.5,3.7,3.6,3.7C209.2,103.6,210.6,101.9,210.6,99.9z"/>
	<path class="st0" d="M214.1,99.8L214.1,99.8c0-3.2,2.3-5,4.6-5c1.8,0,2.9,1,3.7,2V91h1.4v13.6h-1.4v-1.9c-0.8,1.2-1.9,2.1-3.7,2.1
		C216.4,104.8,214.1,103,214.1,99.8z M222.5,99.8L222.5,99.8c0-2.3-1.7-3.7-3.5-3.7c-1.9,0-3.4,1.4-3.4,3.7v0c0,2.3,1.6,3.7,3.4,3.7
		C220.8,103.5,222.5,102,222.5,99.8z"/>
	<path class="st0" d="M226.9,101v-6h1.4v5.6c0,1.8,1,2.9,2.7,2.9c1.6,0,2.9-1.2,2.9-3V95h1.4v9.6h-1.4v-1.7c-0.7,1-1.6,1.9-3.3,1.9
		C228.3,104.8,226.9,103.3,226.9,101z"/>
	<path class="st0" d="M237.9,99.9L237.9,99.9c0-2.8,2.1-5.1,4.9-5.1c1.8,0,3,0.8,3.9,1.7l-0.9,1c-0.8-0.8-1.6-1.5-2.9-1.5
		c-2,0-3.4,1.7-3.4,3.7v0c0,2.1,1.5,3.7,3.5,3.7c1.2,0,2.2-0.6,2.9-1.4l0.9,0.9c-1,1.1-2.1,1.9-3.9,1.9
		C240.1,104.8,237.9,102.6,237.9,99.9z"/>
	<path class="st0" d="M249.7,102.1v-5.8h-1.3V95h1.3v-2.9h1.4V95h3.1v1.3h-3.1v5.6c0,1.2,0.7,1.6,1.6,1.6c0.5,0,0.9-0.1,1.4-0.3v1.2
		c-0.5,0.3-1,0.4-1.7,0.4C250.8,104.8,249.7,104,249.7,102.1z"/>
	<path class="st0" d="M256.7,91.3h1.6v1.6h-1.6V91.3z M256.8,95h1.4v9.6h-1.4V95z"/>
	<path class="st0" d="M260.6,95h1.6l3.2,8l3.3-8h1.5l-4.2,9.7h-1.3L260.6,95z"/>
	<path class="st0" d="M272.5,91.3h1.6v1.6h-1.6V91.3z M272.6,95h1.4v9.6h-1.4V95z"/>
	<path class="st0" d="M277.9,102.1v-5.8h-1.3V95h1.3v-2.9h1.4V95h3.1v1.3h-3.1v5.6c0,1.2,0.7,1.6,1.6,1.6c0.5,0,0.9-0.1,1.4-0.3v1.2
		c-0.5,0.3-1,0.4-1.7,0.4C279.1,104.8,277.9,104,277.9,102.1z"/>
	<path class="st0" d="M284.4,107.2l0.5-1.1c0.5,0.2,0.9,0.4,1.5,0.4c0.9,0,1.4-0.4,2-1.8L284,95h1.6l3.5,8l3.1-8h1.5l-4,9.9
		c-0.8,2-1.8,2.7-3.2,2.7C285.6,107.7,285,107.5,284.4,107.2z"/>
</g>
<text transform="matrix(1 0 0 1 214.2644 58.995)" class="st1 st2 st3"> </text>
<g>
	<rect x="118.5" y="53.9" class="st4" width="5.5" height="21.4"/>
	<rect x="127.5" y="61.7" class="st4" width="5.5" height="13.6"/>
	<rect x="136.5" y="47.5" class="st4" width="5.5" height="27.8"/>
	<rect x="145.4" y="40.2" class="st4" width="5.5" height="35.1"/>
	<rect x="154.4" y="34.4" class="st4" width="5.5" height="40.9"/>
</g>
<g>
	<g>
		<path class="st0" d="M179.8,74.4l20.5-18.5c9-8.3,12.2-13,12.2-18.8c0-7.2-5.8-11.8-12.4-11.8c-7,0-11.6,3.6-16.1,10.2l-3.1-2
			c4.8-7.3,9.9-11.8,19.6-11.8c9.4,0,16.3,6.5,16.3,15.1v0.2c0,7.5-4.1,12.6-13.8,21.4l-16.8,15.2h31.1v3.9h-37.6V74.4z"/>
	</g>
	<g>
		<path class="st0" d="M225.8,28.8L225.8,28.8c0-3.5,2.4-6.4,5.9-6.4c3.5,0,5.8,2.9,5.8,6.3v0.1c0,3.4-2.4,6.4-5.9,6.4
			C228.1,35.1,225.8,32.2,225.8,28.8z M246.5,22.6h3.5l-18.2,24.9h-3.5L246.5,22.6z M234.4,28.8L234.4,28.8c0-2.1-1.1-3.7-2.7-3.7
			c-1.7,0-2.7,1.6-2.7,3.6v0.1c0,2,1.1,3.6,2.7,3.6C233.4,32.4,234.4,30.7,234.4,28.8z M240.8,41.5L240.8,41.5
			c0-3.5,2.4-6.4,5.9-6.4c3.5,0,5.8,2.9,5.8,6.3v0.1c0,3.4-2.4,6.4-5.9,6.4C243.2,47.8,240.8,44.9,240.8,41.5z M249.4,41.5
			L249.4,41.5c0-2.1-1.1-3.7-2.7-3.7c-1.7,0-2.7,1.6-2.7,3.6v0.1c0,2,1.1,3.6,2.7,3.6C248.4,45.1,249.4,43.4,249.4,41.5z"/>
	</g>
</g>
<g>
	<g>
		<polygon class="st4" points="95.9,50 71.8,26.2 48,50 45,47 71.7,20.3 98.9,47 		"/>
	</g>
	<g>
		<rect x="69.7" y="23.8" class="st4" width="4.3" height="80.4"/>
	</g>
</g>
</svg>
