<?xml version="1.0" encoding="utf-8"?>
<!-- Generator: Adobe Illustrator 21.0.2, SVG Export Plug-In . SVG Version: 6.00 Build 0)  -->
<svg version="1.1" id="Layer_1" xmlns="http://www.w3.org/2000/svg" xmlns:xlink="http://www.w3.org/1999/xlink" x="0px" y="0px"
	 viewBox="0 0 144 144" style="enable-background:new 0 0 144 144;" xml:space="preserve">
<style type="text/css">
	.st0{fill:#2C7B98;}
	.st1{fill:#FFFFFF;stroke:#2C7B98;stroke-miterlimit:10;}
	.st2{fill:#FFFFFF;stroke:#2C7B98;stroke-width:0.5;stroke-miterlimit:10;}
	.st3{fill:none;stroke:#2C7B98;stroke-width:0.25;stroke-miterlimit:10;}
	.st4{fill:#FFFFFF;stroke:#2C7B98;stroke-width:0.25;stroke-miterlimit:10;}
</style>
<circle class="st0" cx="72" cy="72" r="72"/>
<g>
	<g>
		<path class="st1" d="M69.3,53.6h-6.6c-0.7,0-1.2-0.5-1.2-1.2v-6.6c0-0.7,0.5-1.2,1.2-1.2h6.6c0.7,0,1.2,0.5,1.2,1.2v6.6
			C70.5,53,69.9,53.6,69.3,53.6z M63.8,51.1H68v-4.2h-4.2V51.1z"/>
	</g>
	<g>
		<path class="st1" d="M81.4,53.6h-6.6c-0.7,0-1.2-0.5-1.2-1.2v-6.6c0-0.7,0.5-1.2,1.2-1.2h6.6c0.7,0,1.2,0.5,1.2,1.2v6.6
			C82.6,53,82.1,53.6,81.4,53.6z M76,51.1h4.2v-4.2H76V51.1z"/>
	</g>
	<g>
		<path class="st1" d="M69.3,66h-6.6c-0.7,0-1.2-0.5-1.2-1.2v-6.6c0-0.7,0.5-1.2,1.2-1.2h6.6c0.7,0,1.2,0.5,1.2,1.2v6.6
			C70.5,65.4,69.9,66,69.3,66z M63.8,63.6H68v-4.2h-4.2V63.6z"/>
	</g>
	<g>
		<path class="st1" d="M81.4,66h-6.6c-0.7,0-1.2-0.5-1.2-1.2v-6.6c0-0.7,0.5-1.2,1.2-1.2h6.6c0.7,0,1.2,0.5,1.2,1.2v6.6
			C82.6,65.4,82.1,66,81.4,66z M76,63.6h4.2v-4.2H76V63.6z"/>
	</g>
	<g>
		<path class="st1" d="M69.3,78.4h-6.6c-0.7,0-1.2-0.5-1.2-1.2v-6.6c0-0.7,0.5-1.2,1.2-1.2h6.6c0.7,0,1.2,0.5,1.2,1.2v6.6
			C70.5,77.9,69.9,78.4,69.3,78.4z M63.8,76H68v-4.2h-4.2V76z"/>
	</g>
	<g>
		<path class="st1" d="M81.4,78.4h-6.6c-0.7,0-1.2-0.5-1.2-1.2v-6.6c0-0.7,0.5-1.2,1.2-1.2h6.6c0.7,0,1.2,0.5,1.2,1.2v6.6
			C82.6,77.9,82.1,78.4,81.4,78.4z M76,76h4.2v-4.2H76V76z"/>
	</g>
	<g>
		<path class="st2" d="M104.5,64H91.3c-0.7,0-1.2-0.5-1.2-1.2s0.5-1.2,1.2-1.2h13.2c0.7,0,1.2,0.5,1.2,1.2S105.2,64,104.5,64z"/>
	</g>
	<g>
		<path class="st2" d="M104.5,71.4H91.3c-0.7,0-1.2-0.5-1.2-1.2c0-0.7,0.5-1.2,1.2-1.2h13.2c0.7,0,1.2,0.5,1.2,1.2
			C105.7,70.8,105.2,71.4,104.5,71.4z"/>
	</g>
	<g>
		<path class="st2" d="M104.5,78.8H91.3c-0.7,0-1.2-0.5-1.2-1.2s0.5-1.2,1.2-1.2h13.2c0.7,0,1.2,0.5,1.2,1.2S105.2,78.8,104.5,78.8z
			"/>
	</g>
	<g>
		<path class="st2" d="M104.5,86.2H91.3c-0.7,0-1.2-0.5-1.2-1.2c0-0.7,0.5-1.2,1.2-1.2h13.2c0.7,0,1.2,0.5,1.2,1.2
			C105.7,85.7,105.2,86.2,104.5,86.2z"/>
	</g>
	<g>
		<path class="st1" d="M41.2,56.6c-0.7,0-1.2-0.5-1.2-1.2v-2.5c0-0.7,0.5-1.2,1.2-1.2h2.6c0.7,0,1.2,0.5,1.2,1.2
			c0,0.7-0.5,1.2-1.2,1.2h-1.4v1.3C42.4,56,41.9,56.6,41.2,56.6z"/>
	</g>
	<g>
		<path class="st1" d="M50.1,56.6c-0.7,0-1.2-0.5-1.2-1.2v-2.5c0-0.7,0.5-1.2,1.2-1.2h2.6c0.7,0,1.2,0.5,1.2,1.2
			c0,0.7-0.5,1.2-1.2,1.2h-1.4v1.3C51.3,56,50.7,56.6,50.1,56.6z"/>
	</g>
	<g>
		<path class="st1" d="M41.2,64.5c-0.7,0-1.2-0.5-1.2-1.2v-2.5c0-0.7,0.5-1.2,1.2-1.2h2.6c0.7,0,1.2,0.5,1.2,1.2
			c0,0.7-0.5,1.2-1.2,1.2h-1.4v1.3C42.4,64,41.9,64.5,41.2,64.5z"/>
	</g>
	<g>
		<path class="st1" d="M50.1,64.5c-0.7,0-1.2-0.5-1.2-1.2v-2.5c0-0.7,0.5-1.2,1.2-1.2h2.6c0.7,0,1.2,0.5,1.2,1.2
			c0,0.7-0.5,1.2-1.2,1.2h-1.4v1.3C51.3,64,50.7,64.5,50.1,64.5z"/>
	</g>
	<g>
		<path class="st1" d="M41.2,72.5c-0.7,0-1.2-0.5-1.2-1.2v-2.5c0-0.7,0.5-1.2,1.2-1.2h2.6c0.7,0,1.2,0.5,1.2,1.2
			c0,0.7-0.5,1.2-1.2,1.2h-1.4v1.3C42.4,72,41.9,72.5,41.2,72.5z"/>
	</g>
	<g>
		<path class="st1" d="M50.1,72.5c-0.7,0-1.2-0.5-1.2-1.2v-2.5c0-0.7,0.5-1.2,1.2-1.2h2.6c0.7,0,1.2,0.5,1.2,1.2
			c0,0.7-0.5,1.2-1.2,1.2h-1.4v1.3C51.3,72,50.7,72.5,50.1,72.5z"/>
	</g>
	<g>
		<path class="st1" d="M41.2,80.5c-0.7,0-1.2-0.5-1.2-1.2v-2.5c0-0.7,0.5-1.2,1.2-1.2h2.6c0.7,0,1.2,0.5,1.2,1.2
			c0,0.7-0.5,1.2-1.2,1.2h-1.4v1.3C42.4,80,41.9,80.5,41.2,80.5z"/>
	</g>
	<g>
		<path class="st1" d="M50.1,80.5c-0.7,0-1.2-0.5-1.2-1.2v-2.5c0-0.7,0.5-1.2,1.2-1.2h2.6c0.7,0,1.2,0.5,1.2,1.2
			c0,0.7-0.5,1.2-1.2,1.2h-1.4v1.3C51.3,80,50.7,80.5,50.1,80.5z"/>
	</g>
	<g>
		<path class="st1" d="M41.2,88.5c-0.7,0-1.2-0.5-1.2-1.2v-2.5c0-0.7,0.5-1.2,1.2-1.2h2.6c0.7,0,1.2,0.5,1.2,1.2
			c0,0.7-0.5,1.2-1.2,1.2h-1.4v1.3C42.4,88,41.9,88.5,41.2,88.5z"/>
	</g>
	<g>
		<path class="st1" d="M50.1,88.5c-0.7,0-1.2-0.5-1.2-1.2v-2.5c0-0.7,0.5-1.2,1.2-1.2h2.6c0.7,0,1.2,0.5,1.2,1.2
			c0,0.7-0.5,1.2-1.2,1.2h-1.4v1.3C51.3,88,50.7,88.5,50.1,88.5z"/>
	</g>
	<g>
		<rect x="68.4" y="86" class="st3" width="7.3" height="8.3"/>
		<rect x="78.1" y="86" class="st3" width="7" height="8.3"/>
		<polygon class="st3" points="108.4,55.3 87.5,47.5 87.5,94.3 108.4,94.3 		"/>
		<rect x="58.9" y="40.5" class="st3" width="26.2" height="43.1"/>
		<rect x="58.9" y="86" class="st3" width="7" height="8.3"/>
		<rect x="36.8" y="47" class="st3" width="19.7" height="47.3"/>
		<path class="st4" d="M113.8,94.3h-3V54.4c0-0.5-0.3-1-0.8-1.1l-22.5-8.4v-5.6c0-0.7-0.5-1.2-1.2-1.2H57.7c-0.7,0-1.2,0.5-1.2,1.2
			v5.3H35.6c-0.7,0-1.2,0.5-1.2,1.2v48.5h-4.2c-0.7,0-1.2,0.5-1.2,1.2c0,0.7,0.5,1.2,1.2,1.2h83.6c0.7,0,1.2-0.5,1.2-1.2
			C115,94.9,114.5,94.3,113.8,94.3z M87.5,47.5l20.8,7.8v39H87.5V47.5z M75.7,94.3h-7.3V86h7.3V94.3z M78.1,86h7v8.3h-7V86z
			 M58.9,40.5h26.2v43.1H58.9V40.5z M58.9,86h7v8.3h-7V86z M36.8,47h19.7v47.3H36.8V47z"/>
	</g>
</g>
</svg>
