<?xml version="1.0" encoding="utf-8"?>
<!-- Generator: Adobe Illustrator 21.0.2, SVG Export Plug-In . SVG Version: 6.00 Build 0)  -->
<svg version="1.1" id="Layer_1" xmlns="http://www.w3.org/2000/svg" xmlns:xlink="http://www.w3.org/1999/xlink" x="0px" y="0px"
	 viewBox="0 0 24.3 24.4" style="enable-background:new 0 0 24.3 24.4;" xml:space="preserve">
<style type="text/css">
	.st0{fill:#1A1A1A;}
</style>
<path class="st0" d="M12.1,0c3.3,0,6.4,1.4,8.6,3.6s3.6,5.2,3.6,8.6c0,3.3-1.4,6.4-3.6,8.6s-5.2,3.6-8.6,3.6c-3.3,0-6.4-1.4-8.6-3.6
	C1.4,18.5,0,15.5,0,12.1c0-3.3,1.4-6.4,3.6-8.6C5.7,1.4,8.8,0,12.1,0 M20,4.2c-2-2-4.8-3.3-7.9-3.3C9,0.9,6.2,2.2,4.2,4.2
	S0.9,9,0.9,12.1S2.2,18,4.2,20s4.8,3.3,7.9,3.3S18,22.1,20,20c2-2,3.3-4.8,3.3-7.9S22,6.2,20,4.2"/>
<path class="st0" d="M10.2,17.4c5,0,7.7-4.1,7.7-7.7c0-0.1,0-0.2,0-0.3c0.5-0.4,1-0.9,1.3-1.4c-0.5,0.2-1,0.4-1.5,0.4
	c0.6-0.3,1-0.9,1.2-1.5c-0.5,0.3-1.1,0.5-1.7,0.7c-0.5-0.5-1.2-0.9-2-0.9c-1.5,0-2.7,1.2-2.7,2.7c0,0.2,0,0.4,0.1,0.6
	C10.3,9.9,8.3,8.9,7,7.2C6.8,7.6,6.6,8.1,6.6,8.6c0,0.9,0.5,1.8,1.2,2.2c-0.4,0-0.9-0.1-1.2-0.3l0,0c0,1.3,0.9,2.4,2.2,2.6
	c-0.2,0.1-0.5,0.1-0.7,0.1s-0.3,0-0.5,0c0.3,1.1,1.3,1.8,2.5,1.9c-0.9,0.7-2.1,1.2-3.3,1.2c-0.2,0-0.4,0-0.6,0
	C7.3,17,8.7,17.4,10.2,17.4"/>
</svg>
