<svg xmlns="http://www.w3.org/2000/svg" viewBox="0 0 360 360"><switch><g><circle fill="#3D6D89" cx="180" cy="180" r="177.4"/><path fill="#33647F" d="M145.8 181.8l9.5-9.8v13l-9.5 9.8zm0 23.7l9.5-9.8v13l-9.5 9.8zm-24.2 2.2l9.5-9.8v13l-9.5 9.8z"/><path fill="#3D6D89" d="M119.2 118.2h53.7v103.6h-53.7z"/><path fill="#33647F" d="M185.3 149.8h56.8v34.5h-56.8z"/><g fill="#FFF"><path d="M96.6 172.2c-.1 23.7-.1 47.3-.1 71 0 .8.1 1.6.1 2.7h176.9c4.2 0 7.2 2.6 7.2 6.3 0 3.7-2.9 6.4-7.1 6.5-10.6.1-59.2 0-69.8 0h-120V107.8c.2-3.6 2.7-6.2 6.1-6.3 3.4-.1 6.3 2.3 6.5 5.9.2 3.5.1 7 .1 10.5v31.7c0 .6.1 1.3.2 2.2l-.1 20.4z"/><path d="M93.1 164.4l82.5-82.5c14.2 14.3 28.3 28.4 42.1 42.2 9.1-9.1 18-18.1 27.3-27.3-4.2-4.1-8.6-8.3-13.4-12.9 16.5-4.4 32.6-8.7 49.2-13.2-4.4 16.6-8.7 32.7-13.1 49-4.5-4.6-8.8-9-13.2-13.5l-36.3 36.3C204 128.3 190 114.2 176 100.1c-13.7 13.7-69.1 69.1-82.4 82.5"/></g><path fill="#3D6D89" d="M240.4 198.6h-71.9c-.9 0-1.7-.8-1.7-1.7V108c0-.9.8-1.7 1.7-1.7h71.9c.9 0 1.7.8 1.7 1.7v88.9c0 .9-.8 1.7-1.7 1.7z"/><path fill="#3D6D89" d="M173.6 237.1h-65c-1 0-1.9-.8-1.9-1.9v-88.5c0-1 .8-1.9 1.9-1.9h65c1 0 1.9.8 1.9 1.9v88.5c0 1-.8 1.9-1.9 1.9z"/><path d="M234.2 231.7c0 2.6-.1 2.8-2.8 2.8h-55.5c-2.6 0-2.8-.3-2.8-2.8V116.2c0-2.5.3-2.8 2.7-2.8h55.6c2.6 0 2.8.1 2.8 2.8v115.5zm-8.5-100.8c0-1-.4-1.4-1.4-1.4h-11.2c-1 0-1.3.5-1.3 1.4V142c0 1 .4 1.5 1.4 1.5h11.1c1.1 0 1.4-.5 1.4-1.5v-5.5c0-1.9-.1-3.8 0-5.6zm-44 11.1c0 1 .4 1.5 1.4 1.5h11.1c1 0 1.5-.4 1.5-1.4V131c0-1-.4-1.5-1.5-1.4h-11.1c-1 0-1.5.4-1.4 1.4.1 1.8 0 3.7 0 5.5 0 1.8.1 3.7 0 5.5zm0 30c0 1.1.4 1.5 1.4 1.4h11.1c1 0 1.5-.4 1.4-1.5v-11.1c0-1-.5-1.4-1.5-1.4H183c-1 0-1.4.4-1.4 1.5v5.5c.1 1.9.2 3.8.1 5.6zm1.5 17.5c-1 0-1.5.3-1.5 1.4v11.2c0 .9.4 1.3 1.3 1.3h11.4c.9 0 1.3-.4 1.3-1.3v-11.2c0-1-.4-1.4-1.4-1.4h-11.1zm40.8-16c1.2 0 1.7-.4 1.7-1.6V161c0-1-.4-1.5-1.4-1.5h-10.9c-1.1 0-1.6.4-1.6 1.5v11.1c0 1 .4 1.4 1.4 1.4h5.7c1.6-.1 3.4-.1 5.1 0zm1.7 17.6c0-1.1-.3-1.7-1.6-1.7h-10.9c-1 0-1.5.4-1.5 1.4v11.1c0 1.1.5 1.4 1.5 1.4h10.9c1.1 0 1.6-.4 1.5-1.5-.1-1.8 0-3.7 0-5.5.1-1.7 0-3.4.1-5.2zm-59 9v-31.8c0-2.3-.1-2.4-2.4-2.4h-48.6c-2.2 0-2.4.2-2.4 2.3v63.7c0 2.2.3 2.5 2.4 2.5h11.1c2.1 0 2.3-.2 2.3-2.3v-25.6c0-1.5.3-2.1 2-2.1 5.9.1 11.8.1 17.8 0 1.5 0 1.9.5 1.9 2-.1 8.5 0 17.1 0 25.6 0 2.2.2 2.4 2.4 2.4h11.1c2.1 0 2.3-.3 2.3-2.4.1-10.6.1-21.2.1-31.9zm-26.5-40.6h24.1c2.3 0 2.4-.2 2.4-2.4v-4.4c0-1.1-.4-1.6-1.5-1.7h-50c-1.3 0-1.9.6-1.8 1.9.1 1.5.1 3 0 4.6-.1 1.7.8 2 2.2 2h24.6z" fill="#FFF"/></g></switch></svg>