<svg id="Layer_5" xmlns="http://www.w3.org/2000/svg" viewBox="0 0 360 360"><style>.st0{fill:#fff}</style><path class="st0" d="M183.1 143.4h11.1c1 0 1.5-.4 1.5-1.4v-11.1c0-1-.4-1.5-1.5-1.4h-11.1c-1 0-1.5.4-1.4 1.4.1 1.8 0 3.7 0 5.5v5.5c0 1.1.4 1.6 1.4 1.5zm11.1 16.1h-11.1c-1 0-1.4.4-1.4 1.5v11c0 1.1.4 1.5 1.4 1.4h11.1c1 0 1.5-.4 1.4-1.5v-11.1c.1-.9-.4-1.3-1.4-1.3zm30 0h-10.9c-1.1 0-1.6.4-1.6 1.5v11.1c0 1 .4 1.4 1.4 1.4H224c1.2 0 1.7-.4 1.7-1.6V161c0-1.1-.4-1.5-1.5-1.5zm-11-16.1h11.1c1.1 0 1.4-.5 1.4-1.5v-11c0-1-.4-1.4-1.4-1.4h-11.2c-1 0-1.3.5-1.3 1.4V142c-.1 1 .3 1.5 1.4 1.4zm-18.9 46.1h-11.1c-1 0-1.5.3-1.5 1.4v11.2c0 .9.4 1.3 1.3 1.3h11.4c.9 0 1.3-.4 1.3-1.3v-11.2c0-1-.4-1.4-1.4-1.4zm31.4 6.9v-5.2c0-1.1-.3-1.7-1.6-1.7h-10.9c-1 0-1.5.4-1.5 1.4V202c0 1.1.5 1.4 1.5 1.4h10.9c1.1 0 1.6-.4 1.5-1.5 0-1.9.1-3.7.1-5.5z"/><path class="st0" d="M180 2.6C82 2.6 2.6 82 2.6 180S82 357.4 180 357.4 357.4 278 357.4 180 278 2.6 180 2.6zm-4.4 79.3c8.2 8.2 16.3 16.4 24.4 24.4h-17.8l-6.2-6.2-6.2 6.2h-1.3c-.9 0-1.7.8-1.7 1.7v1.3l-35.5 35.5h-18.6c21.8-21.9 53.1-53.2 62.9-62.9zm55.9 31.6c2.6 0 2.8.1 2.8 2.8v115.4c0 2.6-.1 2.8-2.8 2.8H176c-2.6 0-2.8-.3-2.8-2.8V116.2c0-2.5.3-2.8 2.7-2.8 18.5.1 37 .1 55.6.1zM149 204.4c-5.9.1-11.8.1-17.8 0-1.6 0-2 .6-2 2.1.1 8.5 0 17.1 0 25.6 0 2.1-.2 2.3-2.3 2.3h-11.1c-2.1 0-2.4-.3-2.4-2.5v-63.7c0-2.1.2-2.3 2.4-2.3h48.6c2.3 0 2.4.1 2.4 2.4v63.8c0 2.1-.3 2.4-2.3 2.4h-11.1c-2.2 0-2.4-.2-2.4-2.4v-25.6c-.1-1.6-.5-2.1-2-2.1zm17.7-47.3c0 2.2-.1 2.4-2.4 2.4h-48.7c-1.4 0-2.3-.3-2.2-2 .1-1.5.1-3 0-4.6-.1-1.3.6-1.9 1.8-1.9h50c1.1 0 1.5.6 1.5 1.7v4.4zm107 101.5c-10.6.1-59.2 0-69.8 0h-120V107.7c.2-3.6 2.7-6.2 6.1-6.3 3.4-.1 6.3 2.3 6.5 5.9.2 3.5.1 7 .1 10.5v31.7c0 .6.1 1.3.2 2.2l-.1 9 10.1-10.1v18.6l-10.2 10.2c-.1 21.2 0 42.5 0 63.7 0 .8.1 1.6.1 2.7h176.9c4.2 0 7.2 2.6 7.2 6.3 0 3.7-2.9 6.5-7.1 6.5zm-6-138.9c-4.5-4.6-8.8-9-13.2-13.5l-12.4 12.4V108c0-.9-.8-1.7-1.7-1.7h-5l9.5-9.5c-4.2-4.1-8.6-8.3-13.4-12.9 16.5-4.4 32.6-8.7 49.2-13.2-4.4 16.6-8.7 32.7-13 49z"/></svg>