<svg xmlns="http://www.w3.org/2000/svg" width="316" height="60" viewBox="0 0 316 60"><g fill="#FFF"><path d="M32.7 16.9h-6.2c-.1 0-.2.1-.2.1l-9.7 23.2L6.8 17c0-.1-.1-.1-.2-.1H.4c-.1 0-.2 0-.2.1s-.2.1 0 .2l13.6 31.2c0 .1.1.1.2.1h5.1c.1 0 .2-.1.2-.1L33 17.2V17c0-.1-.2-.1-.3-.1zm11.2 0h-5.4c-.1 0-.3.1-.3.2v31.2c0 .1.2.2.3.2h5.4c.1 0 .2-.1.2-.2V17.1c0-.1-.1-.2-.2-.2zm23.5 4.8c5.3 0 9.4 3.4 10 8.3H57.3c.6-3.8 3.6-8.3 10.1-8.3zm0-5.6c-9.6 0-16.6 7-16.6 16.6 0 8.3 6.1 16.6 17.5 16.6 5.7 0 10.2-2.2 14.4-6.9 0 0 .1-.1.1-.3 0-.1 0-.1-.1-.2l-4.1-3.3c-.1-.2-.3-.2-.4 0-2.8 3.1-6.2 4.9-9.9 4.9-5.6 0-10-3.4-10.9-8.5H84c.1 0 .3-.1.3-.3 0-11.1-6.9-18.6-16.9-18.6zm68.7.9c0-.1-.1-.1-.3-.1H130c-.1 0-.2.1-.2.2l-7.7 22-7.6-22c0-.1-.1-.2-.3-.2h-5.9c-.1 0-.2.1-.2.2l-7.6 22-7.7-22c0-.1-.2-.2-.3-.2h-5.8c-.1 0-.3 0-.3.1s-.1.1 0 .2L98 48.4c0 .1.2.2.3.2h4.5c.1 0 .2-.1.2-.2l8.3-23.8 8.2 23.8c0 .1.1.2.3.2h4.5c.1 0 .2-.1.2-.2l11.6-31.2c.1-.1.1-.2 0-.2z"/><path d="M41.4 7c-2 0-3.8 1.7-3.8 3.9 0 2.1 1.7 3.7 3.8 3.7 2.2 0 3.9-1.7 3.9-3.7 0-2.1-1.8-3.9-3.9-3.9" opacity=".7"/><path d="M159 .1h.6v59.8h-.6V.1zm24.5 26.1v11.2h3.5c3.7 0 6.1-2.4 6.1-5.6 0-3.1-2.4-5.6-6.1-5.6h-3.5zm-1-.9h4.4c4.1 0 7.1 2.8 7.1 6.5s-2.9 6.5-7 6.5h-4.4l-.1-13zm22.1 3.6h1.1l-4.2 9.8c-.9 2-1.8 2.7-3.2 2.7-.7 0-1.3-.2-1.9-.4l.3-.8c.5.3.9.4 1.6.4 1.1 0 1.7-.6 2.3-2.3l-4.6-9.4h1l4 8.5 3.6-8.5zm3.5 0h.9v1.7c.7-1.1 1.7-2 3.5-2 2.4 0 3.8 1.7 3.8 4v5.7h-.9v-5.6c0-1.9-1.1-3.2-3-3.2-2 0-3.4 1.4-3.4 3.4v5.4h-.9v-9.4zm18.3 5.8v-1c-.8-.3-2-.4-3.2-.4-2.1 0-3.3.9-3.3 2.2 0 1.4 1.3 2.2 2.9 2.2 1.9 0 3.6-1.2 3.6-3zm-7.5.8c0-2.1 1.7-3.2 4.3-3.2 1.2 0 2.3.1 3.2.4v-.4c0-1.9-1.2-2.9-3.2-2.9-1.2 0-2.2.2-3 .7l-.4-.7c1-.5 2.1-.8 3.5-.8 1.3 0 2.3.4 3.1 1 .6.7 1 1.5 1 2.7v6h-.9v-1.5c-.6.9-1.8 1.8-3.7 1.8-2 0-3.9-1.1-3.9-3.1zm11.6-6.6h.9v1.6c.6-1 1.5-1.9 3.2-1.9 1.7 0 2.7.9 3.2 2 .7-1 1.7-2 3.5-2 2.3 0 3.7 1.5 3.7 4v5.7h-.9v-5.6c0-2.1-1-3.2-2.8-3.2-1.7 0-3.1 1.3-3.1 3.3v5.5h-.9v-5.7c0-2-1.2-3.2-2.8-3.2-1.7 0-3.1 1.5-3.1 3.4v5.5h-.9v-9.4zm18.1 0h.9v9.4h-.9v-9.4zm-.1-3.9h1.1v1.3h-1.1V25zm4 8.6c0-2.7 2.2-5 4.9-5 1.8 0 2.9.8 3.8 1.8l-.6.6c-.8-.9-1.8-1.5-3.2-1.5-2.2 0-3.9 1.8-3.9 4.1s1.8 4.1 4 4.1c1.4 0 2.4-.7 3.2-1.6l.6.5c-1 1.2-2.1 2-3.9 2-2.7 0-4.9-2.3-4.9-5zm16.7-1.8c0-3.6 2.6-6.8 6.6-6.8 2.1 0 3.4.7 4.8 1.7l-.6.7c-1-.8-2.2-1.5-4.2-1.5-3.3 0-5.4 2.7-5.4 5.9 0 3.3 2.1 5.9 5.6 5.9 1.7 0 3.2-.7 4.3-1.6v-3.7h-4.4v-.9h5.4v5c-1.2 1-3.1 1.9-5.2 1.9-4.5.2-6.9-2.9-6.9-6.6zm15.3-7.2h.9v13.7h-.9V24.6zm11.2 10.1v-1c-.8-.3-1.9-.4-3.2-.4-2.1 0-3.2.9-3.2 2.2 0 1.4 1.2 2.2 2.8 2.2 1.9 0 3.6-1.2 3.6-3zm-7.5.8c0-2.1 1.7-3.2 4.3-3.2 1.3 0 2.3.1 3.2.4v-.4c0-1.9-1.2-2.9-3.2-2.9-1.2 0-2.2.2-3 .7l-.4-.7c1.1-.5 2.1-.8 3.5-.8 1.3 0 2.3.4 3.1 1 .6.7 1 1.5 1 2.7v6h-.9v-1.5c-.6.9-1.8 1.8-3.7 1.8-1.9 0-3.9-1.1-3.9-3.1zm10.8 1.6l.5-.7c1.1.7 2.2 1.3 3.5 1.3 1.3 0 2.3-.8 2.3-1.8 0-1.2-1.1-1.6-2.5-1.9-1.6-.6-3.4-.9-3.4-2.6 0-1.5 1.3-2.7 3.2-2.7 1.2 0 2.5.4 3.4 1l-.5.8c-.9-.6-2-.9-3-.9-1.3 0-2.2.8-2.2 1.7 0 1 1.3 1.4 2.7 1.8 1.6.3 3.2 1 3.2 2.6 0 1.7-1.4 2.9-3.3 2.9-1.3-.2-2.8-.7-3.9-1.5zm9.2 0l.5-.7c1 .7 2.2 1.3 3.4 1.3 1.3 0 2.4-.8 2.4-1.8 0-1.2-1.2-1.6-2.6-1.9-1.6-.6-3.4-.9-3.4-2.6 0-1.5 1.3-2.7 3.3-2.7 1.1 0 2.4.4 3.4 1l-.5.8c-.9-.6-1.9-.9-2.9-.9-1.3 0-2.2.8-2.2 1.7 0 1 1.3 1.4 2.7 1.8 1.5.3 3.2 1 3.2 2.6 0 1.7-1.4 2.9-3.4 2.9-1.4-.2-2.9-.7-3.9-1.5z" opacity=".9"/></g></svg>