<svg width="247" height="47" viewBox="0 0 247 47" xmlns="http://www.w3.org/2000/svg"><title>logo</title><g fill="none" fill-rule="evenodd"><path d="M26.216 13.164h-4.798c-.096 0-.18.057-.218.145l-7.544 18.25L6.11 13.31c-.035-.09-.12-.146-.216-.146H1.096c-.08 0-.152.04-.196.106-.044.065-.05.148-.02.22l10.585 24.402c.037.086.122.143.215.143h3.95c.095 0 .18-.057.217-.143L26.43 13.49c.033-.072.026-.155-.018-.22-.043-.066-.117-.106-.196-.106m8.702 0h-4.234c-.13 0-.235.105-.235.234V37.8c0 .13.1.235.23.235h4.233c.13 0 .235-.106.235-.235V13.398c0-.13-.105-.234-.235-.234m18.254 3.84c4.114 0 7.296 2.664 7.825 6.51H45.35c.49-3.062 2.8-6.51 7.82-6.51zm.046-4.402c-7.47 0-12.89 5.457-12.89 12.974 0 6.47 4.67 13.02 13.596 13.02 4.357 0 7.925-1.706 11.23-5.37.04-.047.062-.11.057-.175 0-.06-.033-.12-.084-.16l-3.246-2.58c-.1-.08-.243-.06-.326.035-2.154 2.52-4.81 3.852-7.676 3.852-4.363 0-7.752-2.7-8.517-6.745h20.7c.13 0 .235-.105.235-.235 0-8.74-5.255-14.612-13.077-14.612zm53.403.662c-.043-.062-.115-.1-.193-.1h-4.516c-.1 0-.19.063-.22.158L95.7 30.476l-5.94-17.154c-.034-.095-.122-.158-.224-.158H85.02c-.1 0-.19.063-.223.158l-5.94 17.154-5.986-17.154c-.032-.095-.12-.158-.22-.158H68.13c-.076 0-.15.038-.193.1-.044.063-.055.143-.028.215l9.032 24.4c.034.09.122.15.22.15h3.482c.1 0 .19-.064.22-.158l6.41-18.556 6.41 18.556c.035.094.124.158.225.158h3.48c.1 0 .188-.06.22-.153l9.034-24.4c.023-.072.012-.152-.03-.215" fill="#30667F"/><path d="M32.968 5.504c-1.646 0-2.963 1.31-2.963 2.95 0 1.64 1.317 2.95 2.963 2.95 1.646 0 2.963-1.31 2.963-2.95 0-1.64-1.31-2.95-2.96-2.95" fill="#8DC1D2"/><path d="M124.442.102h.5v46.756h-.5V.102zm19.04 20.38v8.815h2.654c2.858 0 4.662-1.94 4.662-4.378v-.03c0-2.428-1.804-4.41-4.662-4.41h-2.653zm-.76-.7h3.416c3.225 0 5.453 2.204 5.453 5.08v.028c0 2.875-2.23 5.108-5.45 5.108h-3.415V19.782zm17.148 2.773h.79l-3.24 7.706c-.658 1.567-1.42 2.12-2.49 2.12-.572 0-.983-.1-1.48-.32l.248-.63c.396.19.718.28 1.275.28.777 0 1.29-.452 1.847-1.75l-3.59-7.4h.834l3.108 6.655 2.697-6.654m2.77-.003h.714v1.386c.498-.873 1.334-1.56 2.697-1.56 1.89 0 2.99 1.286 2.99 3.067V30h-.717v-4.423c0-1.532-.865-2.54-2.375-2.54-1.464 0-2.59 1.11-2.59 2.657V30h-.72v-7.444m14.127 4.654v-.846c-.63-.16-1.466-.336-2.536-.336-1.583 0-2.463.7-2.463 1.737v.03c0 1.08 1.022 1.707 2.17 1.707 1.52 0 2.825-.934 2.825-2.292zm-5.76.628v-.03c0-1.546 1.333-2.422 3.268-2.422 1.04 0 1.76.132 2.477.32v-.32c0-1.503-.923-2.277-2.462-2.277-.905 0-1.653.243-2.342.593l-.264-.628c.822-.38 1.63-.643 2.654-.643 1.012 0 1.818.277 2.36.817.5.496.763 1.182.763 2.102v4.64h-.704v-1.24c-.513.716-1.436 1.416-2.858 1.416-1.394 0-2.89-.79-2.89-2.337zm9.027-5.283h.72v1.328c.482-.774 1.156-1.504 2.49-1.504 1.305 0 2.11.74 2.52 1.6.485-.83 1.29-1.606 2.7-1.606 1.772 0 2.872 1.24 2.872 3.108v4.51h-.72V25.57c0-1.605-.834-2.54-2.212-2.54-1.26 0-2.36.965-2.36 2.628v4.335h-.718V25.53c0-1.547-.85-2.496-2.184-2.496s-2.39 1.168-2.39 2.67V30h-.718v-7.443m14.04-.002h.72v7.443h-.72v-7.443zm-.087-2.92h.894v.98h-.894v-.98zm3.122 6.67v-.03c0-2.086 1.67-3.896 3.81-3.896 1.406 0 2.286.64 2.99 1.37l-.514.522c-.644-.657-1.377-1.226-2.49-1.226-1.702 0-3.02 1.416-3.02 3.196v.03c0 1.795 1.362 3.225 3.077 3.225 1.056 0 1.876-.54 2.507-1.24l.5.437c-.76.86-1.67 1.472-3.05 1.472-2.15 0-3.81-1.78-3.81-3.868m12.985-1.384v-.03c0-2.76 2.01-5.285 5.072-5.285 1.67 0 2.727.497 3.753 1.343l-.5.57c-.808-.704-1.746-1.23-3.3-1.23-2.49 0-4.236 2.102-4.236 4.57v.03c0 2.64 1.657 4.61 4.398 4.61 1.308 0 2.52-.54 3.27-1.168V25.4h-3.43v-.7h4.165v3.94c-.923.818-2.36 1.533-4.03 1.533-3.24 0-5.16-2.38-5.16-5.254m11.886-5.578h.72v10.654h-.72V19.344zm8.692 7.866v-.847c-.63-.16-1.466-.335-2.536-.335-1.583 0-2.463.7-2.463 1.737v.03c0 1.08 1.027 1.707 2.17 1.707 1.525 0 2.83-.934 2.83-2.29zm-5.76.627v-.03c0-1.546 1.333-2.422 3.268-2.422 1.04 0 1.76.132 2.48.32v-.32c0-1.503-.925-2.277-2.464-2.277-.91 0-1.657.245-2.346.595l-.267-.627c.82-.38 1.627-.643 2.653-.643 1.01 0 1.816.277 2.36.817.497.496.76 1.182.76 2.102v4.64h-.702v-1.24c-.514.715-1.437 1.415-2.86 1.415-1.39 0-2.887-.79-2.887-2.336zm8.382 1.226l.426-.57c.82.63 1.73.98 2.683.98 1.012 0 1.803-.555 1.803-1.416v-.03c0-.875-.938-1.196-1.98-1.488-1.216-.35-2.564-.72-2.564-2.047v-.03c0-1.196 1.015-2.057 2.467-2.057.892 0 1.903.32 2.65.816l-.38.597c-.69-.45-1.51-.743-2.303-.743-1.026 0-1.7.555-1.7 1.3v.028c0 .832 1.01 1.14 2.08 1.445 1.204.337 2.464.775 2.464 2.088v.03c0 1.327-1.143 2.174-2.58 2.174-1.084 0-2.272-.44-3.064-1.08m7.137 0l.425-.57c.82.63 1.73.98 2.68.98 1.01 0 1.8-.555 1.8-1.416v-.03c0-.875-.94-1.196-1.98-1.488-1.215-.35-2.564-.72-2.564-2.047v-.03c0-1.197 1.012-2.058 2.463-2.058.893 0 1.904.32 2.652.816l-.38.597c-.69-.45-1.51-.743-2.303-.743-1.023 0-1.7.555-1.7 1.3v.028c0 .832 1.013 1.14 2.084 1.445 1.203.337 2.463.775 2.463 2.088v.03c0 1.327-1.143 2.174-2.58 2.174-1.085 0-2.272-.44-3.063-1.08" fill="#1F272F"/></g></svg>