<svg width="47" height="16" viewBox="0 0 47 16" xmlns="http://www.w3.org/2000/svg"><g fill="#FFF"><path d="M11.562 3.898H9.444c-.044 0-.089.045-.089.045l-3.31 8.131-3.353-8.131c0-.045-.044-.045-.088-.045H.485c-.044 0-.088 0-.088.045 0 .044-.044.044 0 .089l4.678 10.902c0 .045.044.045.088.045h1.721c.044 0 .088-.045.088-.045L11.65 4.032v-.09c0-.044-.044-.044-.088-.044zm3.84 0h-1.854c-.044 0-.088.045-.088.09v10.901c0 .045.044.09.088.09H15.4c.044 0 .088-.045.088-.09V3.987c0-.044-.044-.09-.088-.09zm8.075 1.698c1.81 0 3.221 1.206 3.442 2.904h-6.928c.22-1.34 1.235-2.904 3.486-2.904zm0-1.966c-3.31 0-5.693 2.457-5.693 5.808 0 2.905 2.074 5.809 6.002 5.809 1.942 0 3.486-.76 4.942-2.413 0 0 .044-.045.044-.09 0-.044 0-.044-.044-.089l-1.412-1.161c-.044-.045-.088-.045-.132 0-.971 1.117-2.118 1.742-3.398 1.742-1.942 0-3.442-1.206-3.751-2.993h9.135c.044 0 .088-.045.088-.09 0-3.887-2.339-6.523-5.781-6.523zm23.565.313c0-.045-.044-.045-.088-.045h-1.986c-.044 0-.088.045-.088.09l-2.648 7.684-2.604-7.685c0-.044-.044-.09-.088-.09h-2.03c-.044 0-.088.046-.088.09l-2.604 7.685-2.648-7.685c0-.044-.044-.09-.088-.09h-1.986c-.044 0-.088 0-.088.046 0 .044-.044.044 0 .089l3.972 10.902c0 .045.044.09.088.09h1.545c.044 0 .088-.045.088-.09l2.824-8.31 2.824 8.31c0 .045.045.09.089.09h1.544c.044 0 .088-.045.088-.09l3.972-10.902c.044-.045.044-.09 0-.09z"/><path d="M14.563.457c-.706 0-1.324.581-1.324 1.34 0 .76.574 1.297 1.324 1.297.75 0 1.324-.581 1.324-1.296 0-.715-.618-1.34-1.324-1.34" opacity=".7"/></g></svg>