<svg width="20" height="20" viewBox="0 0 20 20" xmlns="http://www.w3.org/2000/svg"><title>event icon</title><g fill="none" fill-rule="evenodd"><circle fill="#fff" cx="10" cy="10" r="10"/><path d="M15.733 12.052a1.634 1.634 0 0 0-.084-.082l-.01-.003c-.023-.023-.05-.045-.073-.07-.01-.01-.025-.02-.037-.03-.377-.322-.775-.614-.852-1.48-.352-3.993-.713-5.59-3.38-6.48-.414-.136-.557-.33-.654-.503-.015-.027-.03-.054-.042-.08v-.002A.69.69 0 0 0 9.995 3a.723.723 0 0 0-.25.04.679.679 0 0 0-.354.282v.002l-.044.08c-.096.173-.24.367-.652.503-2.67.89-3.03 2.487-3.384 6.48-.077.866-.475 1.158-.853 1.48-.01.01-.02.02-.036.03l-.078.073c-.027.024-.05.048-.074.07l-.004.006a.98.98 0 0 0-.27.677c0 .468.324.86.762.976.052.01.104.02.155.024a28.253 28.253 0 0 0 5.083.46h.01c.65 0 1.298-.02 1.937-.066 1.095-.074 2.17-.21 3.226-.408.47-.094.826-.502.826-.99 0-.258-.1-.494-.262-.672zm-4.26 2.712c-.016 0-.033 0-.05.003-.47.02-.94.034-1.415.034h-.01c-.482 0-.96-.01-1.436-.03H8.56c-.01 0-.02 0-.03-.004a.228.228 0 0 0-.224.225c0 .036.008.07.023.1l.02.04a1.958 1.958 0 0 0 1.644.88 1.941 1.941 0 0 0 1.644-.884c.01-.013.017-.025.024-.037a.226.226 0 0 0-.193-.323z" fill="#9FB0B8"/></g></svg>