<svg width="17" height="20" viewBox="0 0 17 20" xmlns="http://www.w3.org/2000/svg"><title>pdf icon 4</title><g fill="#fff" fill-rule="evenodd"><path d="M.163 0A.16.16 0 0 0 0 .156V10h17V5h-5.067a.16.16 0 0 1-.164-.157V0H.16zm12.26 0v4.375H17L12.423 0zM4.798 11.992v3.633h.98v-1.192h.614c.277 0 .51-.024.695-.097.187-.073.34-.19.49-.332.11-.105.207-.236.266-.39.06-.157.082-.307.082-.47 0-.21-.04-.396-.123-.546a.96.96 0 0 0-.347-.37 1.375 1.375 0 0 0-.43-.177 2.69 2.69 0 0 0-.613-.054H4.798zm3.82 0v3.633h1.35c.303 0 .555-.017.777-.06.22-.042.427-.126.613-.233.247-.144.45-.34.613-.606.167-.27.25-.58.25-.918 0-.35-.073-.66-.224-.918-.15-.26-.35-.472-.614-.625-.153-.09-.347-.146-.572-.196a3.663 3.663 0 0 0-.797-.08H8.62zm4.353 0v3.633h.986v-1.563h1.614v-.703h-1.615v-.67h1.737v-.702h-2.72zm-7.19.683h.166c.162 0 .29-.005.39 0 .095.004.203.02.305.06a.437.437 0 0 1 .287.429.68.68 0 0 1-.04.254.51.51 0 0 1-.145.196.572.572 0 0 1-.264.117c-.107.02-.242.02-.41.02h-.29v-1.07zm3.82 0h.25c.21 0 .365.002.47.02.105.016.225.05.326.097a.91.91 0 0 1 .43.39c.09.17.142.387.142.626 0 .24-.06.44-.143.605a.893.893 0 0 1-.387.39 1.279 1.279 0 0 1-.327.12c-.11.018-.277.018-.51.018H9.6v-2.26zM0 17.5v2.344A.16.16 0 0 0 .163 20h16.674a.16.16 0 0 0 .163-.156V17.5H0z"/><rect y="9" width="2" height="10" rx="8"/></g></svg>