<svg id="Layer_1" xmlns="http://www.w3.org/2000/svg" viewBox="0 0 148.8 148.8"><style>.st0{fill:#60636a}.st1{fill:#fff}</style><circle class="st0" cx="74.4" cy="74.4" r="74.4"/><circle class="st1" cx="74.4" cy="35.3" r="8.5"/><path class="st1" d="M32.2 41.4V43c0 .9.5 1.7 1.4 2l27.1 10.7c.8.3 1.4 1.1 1.4 2v22c0 .2 0 .4-.1.6l-10.7 38.9c-.4 1.4.7 2.8 2.1 2.8h1.7c.9 0 1.7-.5 2-1.3l15.3-35.8c.8-1.8 3.2-1.8 4 0L92 120.7c.3.8 1.1 1.3 2 1.3h1.4c1.5 0 2.5-1.4 2.1-2.8L86 80.6c-.1-.2-.1-.4-.1-.6V58c0-.9.6-1.7 1.4-2l27.9-10.9c.8-.3 1.4-1.1 1.4-2v-1.6c0-1.4-1.4-2.5-2.8-2.1L75 50.1c-.4.1-.8.1-1.2 0L35 39.3c-1.4-.4-2.8.6-2.8 2.1z"/><g id="JxVNbp.tif"><path class="st0" d="M74.4 59.1c-.2-.3-.3-.5-.5-.7-.4-.5-1-1-1.6-1.3-.9-.5-1.8-.6-2.8-.5-.5.1-.9.2-1.4.4-1.6.7-2.5 2.3-2.5 4 0 .5 0 1 .1 1.5.1.4.1.8.3 1.2.2.8.7 1.5 1.2 2.2.4.5.9 1 1.3 1.4.7.7 1.5 1.4 2.3 2 1.2 1 2.3 2 3.5 3.1l.1.1c.8-.8 1.7-1.5 2.5-2.3.9-.8 1.7-1.5 2.6-2.3.5-.5 1.1-1 1.5-1.5.4-.4.8-.9 1.1-1.4.5-.9.8-1.8.9-2.9 0-.4 0-.7.1-1.1 0-.5 0-.9-.2-1.3-.3-1.1-.9-1.9-1.8-2.5-.6-.4-1.3-.6-2-.7h-1.2c-.8.1-1.5.4-2.1.9-.5.5-1 1-1.4 1.7z"/><path class="st0" d="M74.4 59.1c.4-.7.9-1.2 1.5-1.6.6-.5 1.3-.8 2.1-.9.4-.1.8-.1 1.2 0 .7.1 1.4.3 2 .7.9.6 1.5 1.4 1.8 2.5.1.4.2.9.2 1.3s0 .7-.1 1.1c-.1 1-.4 2-.9 2.9-.3.5-.7 1-1.1 1.4L79.6 68c-.9.8-1.7 1.5-2.6 2.3-.8.7-1.7 1.5-2.5 2.3l-.1-.1c-1.1-1.1-2.3-2.1-3.5-3.1-.8-.7-1.6-1.3-2.3-2-.5-.4-.9-.9-1.3-1.4-.5-.6-.9-1.4-1.2-2.2l-.3-1.2c-.1-.5-.1-1-.1-1.5 0-1.7 1-3.2 2.5-4 .4-.2.9-.3 1.4-.4 1-.1 1.9 0 2.8.5.6.3 1.1.8 1.6 1.3.1.1.2.3.4.6z"/></g></svg>