<svg id="Layer_1" xmlns="http://www.w3.org/2000/svg" viewBox="0 0 148.8 148.8"><style>.st0{fill:#8cc3da}.st1{fill:#fff}</style><circle class="st0" cx="74.4" cy="74.4" r="74.4"/><path class="st1" d="M74.6 117.8a43 43 0 0 0 16-3.1c.6-5.7.8-11.1.6-16.4-1 0-1.9-.3-2.8-.7-5 5.1-9.2 11-12.6 17.5l-1.2 2.7zM86.3 87c.9-1 2-1.7 3.3-2.1-2.3-11.8-7.1-22.2-14.4-31.4-.9.5-2 .8-3.2.8-1.3 0-2.5-.4-3.5-1-5.4 3.9-10 8.5-14.1 13.6.4.9.6 1.8.6 2.9 0 .8-.1 1.5-.4 2.2 9.6 7.7 20.2 12.6 31.7 15zM99.6 39.1c-7.5 2-14.4 4.6-20.7 7.8v.5c0 .7-.1 1.4-.3 2 6.6 8.2 13.3 19.9 16.3 35.9 6.3-4.6 13.8-8.7 22.9-12.1-.4-14.1-7.5-26.5-18.2-34.1zM116 86.8c.8-2.5 1.3-5.2 1.6-7.9-6.7 2.6-12.7 5.8-18.1 9.5 7.4.1 13.2-.9 16.5-1.6zM71.3 112.8c3-5.9 7.4-12.5 13.8-18.9-.2-.6-.4-1.3-.4-1.9-9.8-2.1-21.6-6.6-33.2-16-.9.5-2 .8-3.1.8h-.2c-5.5 9.9-7.5 19-8.2 24 6.9 9.1 17.3 15.4 29.2 16.8.5-1.7 1.3-3.2 2.1-4.8zM70.4 40.8c.5-.1 1.1-.2 1.7-.2 1.7 0 3.3.7 4.5 1.7 5-2.6 10.6-4.9 16.8-6.9-5.7-2.8-12.2-4.4-19-4.4-4.8 0-9.5.8-13.8 2.3 2.9 1.9 6.3 4.3 9.8 7.5zM100.8 93.6c-.9 0-1.9 0-2.8-.1-.3 1.1-.9 2-1.7 2.8.3 4.9.3 10.1-.2 15.6 7.8-4.5 14-11.3 17.8-19.5-3.4.7-7.8 1.2-13.1 1.2zM43.3 74.5c-1.2-1.2-1.9-2.9-1.9-4.7 0-.9.2-1.9.5-2.7-2.6-2.8-5.2-5.8-7.7-9.2-2 5.1-3.2 10.7-3.2 16.5 0 7.1 1.7 13.8 4.8 19.7 1.2-5.3 3.5-12.2 7.5-19.6zM45.6 63.5c.8-.3 1.7-.5 2.7-.5.9 0 1.7.2 2.4.5 3.8-4.8 8.7-9.6 14.8-14.1-.2-.6-.3-1.2-.3-1.8 0-1.3.3-2.4.9-3.4-4.3-3.8-8.4-6.5-11.5-8.2-7.4 3.8-13.6 9.7-17.8 16.9 2.9 3.7 5.8 7.3 8.8 10.6z"/></svg>