<svg id="Layer_1" xmlns="http://www.w3.org/2000/svg" viewBox="0 0 148.8 148.8"><style>.st0{fill:#31637e}.st1{fill:#fff}</style><circle class="st0" cx="74.4" cy="74.4" r="74.4"/><path class="st1" d="M42.5 72.9v29.8c0 .3 0 .7.1 1.1h58.2c1.8 0 3 1.1 3 2.6 0 1.6-1.2 2.7-3 2.7H37.2V101 46.7v-.9c.1-1.5 1.1-2.6 2.6-2.6 1.4 0 2.6 1 2.7 2.5.1 1.5 0 2.9 0 4.4v13.3c0 .3 0 .5.1.9l-.1 8.6z"/><path class="st1" d="M41 79.9l34.6-34.6L93.3 63l11.5-11.5c-1.8-1.7-3.6-3.5-5.6-5.4 6.9-1.9 13.7-3.7 20.6-5.5-1.9 7-3.7 13.7-5.5 20.6-1.9-1.9-3.7-3.8-5.5-5.7L93.6 70.7c-6-6-11.8-11.9-17.7-17.8L41.3 87.5"/><path class="st1" d="M75.4 60.4l5.4 5.8v33.1h-8.1V63.4zM85.2 70.3v29h8V78zM68.6 66.9v32.4h-8.1V74.9zM55.3 79.9v19.4h-8V87.6z"/></svg>