<svg id="Layer_1" xmlns="http://www.w3.org/2000/svg" viewBox="0 0 148.8 148.8"><style>.st0{fill:#f47920}.st1{fill:#fff}</style><circle class="st0" cx="74.4" cy="74.4" r="74.4"/><circle class="st1" cx="74.4" cy="61.7" r="30.6"/><path class="st1" d="M83.2 75.9H65.6c-2.6 0-4.7 2.1-4.7 4.7v14.1c0 2.6 2.1 4.7 4.7 4.7h17.6c2.6 0 4.7-2.1 4.7-4.7V80.6c.1-2.6-2.1-4.7-4.7-4.7zM85.8 106.9H63.1c-1.2 0-2.2-1-2.2-2.2 0-1.2 1-2.2 2.2-2.2h22.7c1.2 0 2.2 1 2.2 2.2 0 1.2-1 2.2-2.2 2.2zM85.8 114.3H63.1c-1.2 0-2.2-1-2.2-2.2 0-1.2 1-2.2 2.2-2.2h22.7c1.2 0 2.2 1 2.2 2.2 0 1.3-1 2.2-2.2 2.2zM66.6 117.5c1 3.4 4.1 5.9 7.8 5.9s6.8-2.5 7.8-5.9H66.6z"/><path class="st0" d="M70 90.6s-15.1-14.4 0-32c0 0 7.1-8 6.5-14.9 0 0 27.6 32.6 0 46.8 0 0-7.1 4.5-6.7 10.6H68s-1.8-6.1 5.7-10.6c0 0 11.2-8.1 6.9-29.1.1.2 2.3 12-10.6 29.2z"/></svg>