<svg width="19" height="19" viewBox="0 0 19 19" xmlns="http://www.w3.org/2000/svg"><title>Shape</title><path d="M18.805 15.966C17.73 18.546 15.205 19 14.38 19c-.24 0-4.012.2-9.433-4.944C.584 9.916.05 5.466.005 4.62-.04 3.795.195 1.73 3.037.193 3.39.003 4.087-.08 4.267.1c.08.08 2.466 4.006 2.53 4.136.062.13.093.258.093.383 0 .18-.128.4-.383.67-.256.27-.534.514-.834.74-.3.223-.578.46-.834.71-.26.25-.387.46-.387.62.017.42.36 1.92 2.974 4.216 2.612 2.296 3.87 2.943 3.992 2.988.12.045.22.067.302.067.16 0 .368-.127.62-.382.25-.257 1.093-1.414 1.362-1.67.27-.255.493-.382.673-.382.126 0 .254.03.384.094.13.062 4.06 2.363 4.136 2.44.202.21.06.86-.096 1.23" fill="#999" fill-rule="evenodd"/></svg>